# 3ds Max Wavefront OBJ Exporter v0.97b - (c)2007 guruware
# File Created: 18.10.2016 18:54:16

mtllib Paper_R.mtl

#
# object Paper_R
#

v  25.3918 -2.9918 11.4928
v  25.3918 -3.0704 5.5779
v  24.2075 -2.7243 11.4925
v  23.4164 -2.2778 5.5777
v  23.4593 -2.1879 11.4929
v  23.4175 -2.2753 5.5778
v  35.8687 -2.4915 16.5362
v  35.8687 -2.4889 16.5357
v  33.4145 -2.4915 16.5362
v  35.8687 -3.2716 5.5779
v  35.8687 -3.1680 11.4928
v  35.8687 -3.2743 5.5778
v  24.4964 -2.0753 -1.1191
v  25.3918 -2.2879 -1.1192
v  24.4952 -2.1028 -1.1196
v  25.3918 -3.0982 5.5778
v  25.3918 -2.9944 11.4930
v  24.1635 -2.8166 5.5774
v  33.4145 -3.1680 11.4928
v  33.4145 -3.2716 5.5779
v  27.4057 -3.1680 11.4928
v  26.3647 -2.4889 16.5357
v  25.3918 -2.3128 16.5357
v  26.3647 -2.4915 16.5362
v  27.4057 -2.4891 -1.1192
v  33.4145 -2.4891 -1.1192
v  27.4057 -2.4919 -1.1197
v  33.4145 -3.2743 5.5778
v  33.4145 -3.1706 11.4930
v  27.4057 -3.2743 5.5778
v  27.4057 -3.2716 5.5779
v  26.3647 -3.1680 11.4928
v  26.3647 -3.2716 5.5779
v  23.4604 -2.1855 11.4927
v  24.1646 -2.7891 5.5775
v  26.3647 -2.4891 -1.1192
v  26.3647 -2.4919 -1.1197
v  25.3918 -2.3157 -1.1197
v  23.7481 -1.5640 -1.1193
v  27.4057 -3.1706 11.4930
v  26.3647 -3.2743 5.5778
v  26.3647 -3.1706 11.4930
v  24.2064 -2.7267 11.4927
v  24.4937 -2.1123 16.5359
v  23.7466 -1.5735 16.5361
v  24.4926 -2.1146 16.5364
v  25.3918 -2.3153 16.5362
v  27.4057 -2.4915 16.5362
v  33.4145 -2.4889 16.5357
v  27.4057 -2.4889 16.5357
v  35.8687 -2.4891 -1.1192
v  33.4145 -2.4919 -1.1197
v  35.8687 -3.1706 11.4930
v  23.7455 -1.5758 16.5366
v  23.7492 -1.5615 -1.1188
v  35.8687 -2.4919 -1.1197
# 56 vertices

vn 0.1992 0.9772 -0.0728
vn 0.2125 0.9759 0.0504
vn 0.4099 0.9092 -0.0726
vn -0.9067 0.4217 0.0002
vn 0.0000 0.1878 0.9822
vn 1.0000 -0.0000 -0.0000
vn 0.0042 0.0185 -0.9998
vn -0.2006 -0.9785 -0.0486
vn -0.1987 -0.9773 0.0739
vn -0.4119 -0.9099 -0.0495
vn 0.0000 0.9971 -0.0756
vn 0.0000 0.9988 0.0494
vn 0.0340 0.1877 0.9816
vn -0.0000 0.1858 -0.9826
vn -0.0000 -0.9988 -0.0494
vn -0.0000 -0.9971 0.0756
vn 0.0889 0.9932 -0.0751
vn 0.1006 0.9937 0.0498
vn 0.5659 0.8230 0.0497
vn 0.5825 0.8096 -0.0726
vn 0.4026 0.9140 0.0506
vn 0.0000 0.1835 -0.9830
vn 0.0038 0.0185 -0.9998
vn 0.0127 0.0181 -0.9998
vn -0.0890 -0.9948 -0.0490
vn -0.0889 -0.9932 0.0751
vn -0.5833 -0.8089 0.0742
vn -0.5842 -0.8101 -0.0495
vn -0.4098 -0.9091 0.0745
vn 0.1134 0.1567 0.9811
vn 0.0426 0.1902 0.9808
vn 0.0000 0.1858 -0.9826
vn 0.2152 0.9699 0.1140
vn 0.4061 0.9041 -0.1330
vn -0.9082 0.4186 0.0008
vn -0.9067 0.4217 0.0000
vn -0.1969 -0.9717 0.1306
vn -0.4126 -0.9035 -0.1161
vn 0.0000 0.9932 0.1161
vn 0.0000 0.9911 -0.1334
vn -0.0000 -0.9911 0.1335
vn -0.0000 -0.9932 -0.1160
vn 0.0893 0.9871 -0.1329
vn 0.1019 0.9881 0.1154
vn 0.1967 0.9717 -0.1308
vn 0.5799 0.8042 -0.1305
vn 0.4027 0.9078 0.1167
vn -0.0894 -0.9893 -0.1156
vn -0.0893 -0.9871 0.1329
vn -0.2038 -0.9724 -0.1136
vn -0.5811 -0.8057 -0.1147
vn -0.4059 -0.9042 0.1328
vn -0.9082 0.4185 0.0002
vn 0.0043 0.0185 -0.9998
vn 0.0344 0.1902 0.9811
vn 0.0332 0.1834 -0.9825
vn 0.1050 0.1532 -0.9826
vn 0.1133 0.1567 0.9811
vn 0.0426 0.1900 0.9809
vn 0.0000 0.1859 -0.9826
vn -0.9047 0.4260 -0.0004
vn -0.9037 0.4282 0.0009
vn 0.5629 0.8185 0.1151
vn -0.5799 -0.8042 0.1305
# 64 vertex normals

vt 0.1165 0.1989 0.0000
vt 0.1165 0.1451 0.0000
vt 0.1254 0.1989 0.0000
vt 0.7738 0.0106 0.0000
vt 0.8893 0.0110 0.0000
vt 0.6955 0.0092 0.0000
vt 0.6955 0.0091 0.0000
vt 0.7434 0.0098 0.0000
vt 0.7788 0.0114 0.0000
vt 0.8944 0.0114 0.0000
vt 0.7667 0.0103 0.0000
vt 0.7857 0.0103 0.0000
vt 0.7667 0.0104 0.0000
vt 0.1585 0.1435 0.0000
vt 0.1585 0.1965 0.0000
vt 0.1498 0.1435 0.0000
vt 0.0436 0.1989 0.0000
vt 0.0436 0.1451 0.0000
vt 0.0982 0.1989 0.0000
vt 0.8810 0.0117 0.0000
vt 0.9000 0.0119 0.0000
vt 0.8250 0.0104 0.0000
vt 0.9424 0.0107 0.0000
vt 0.8250 0.0105 0.0000
vt 0.2304 0.1435 0.0000
vt 0.2304 0.1965 0.0000
vt 0.1765 0.1435 0.0000
vt 0.0982 0.1451 0.0000
vt 0.1077 0.1989 0.0000
vt 0.1077 0.1451 0.0000
vt 0.1336 0.1451 0.0000
vt 0.1336 0.1989 0.0000
vt 0.1254 0.1451 0.0000
vt 0.8047 0.0104 0.0000
vt 0.7857 0.0104 0.0000
vt 0.7491 0.0103 0.0000
vt 0.1765 0.1965 0.0000
vt 0.1672 0.1435 0.0000
vt 0.1672 0.1965 0.0000
vt 0.1417 0.1965 0.0000
vt 0.1417 0.1435 0.0000
vt 0.1498 0.1965 0.0000
vt 0.9190 0.0122 0.0000
vt 0.9367 0.0124 0.0000
vt 0.9000 0.0120 0.0000
vt 0.8607 0.0114 0.0000
vt 0.0213 0.1989 0.0000
vt 0.0213 0.1451 0.0000
vt 0.9903 0.0108 0.0000
vt 0.9424 0.0108 0.0000
vt 0.2524 0.1435 0.0000
vt 0.2524 0.1965 0.0000
vt 0.1165 0.0837 0.0000
vt 0.1254 0.2452 0.0000
vt 0.9887 0.0113 0.0000
vt 0.6420 0.0102 0.0000
vt 0.9938 0.0115 0.0000
vt 0.8944 0.0115 0.0000
vt 0.6470 0.0114 0.0000
vt 0.1585 0.2421 0.0000
vt 0.1498 0.0830 0.0000
vt 0.0436 0.0837 0.0000
vt 0.0982 0.2452 0.0000
vt 0.2304 0.2421 0.0000
vt 0.1766 0.0830 0.0000
vt 0.0982 0.0837 0.0000
vt 0.1077 0.2452 0.0000
vt 0.1077 0.0837 0.0000
vt 0.1165 0.2452 0.0000
vt 0.1336 0.2452 0.0000
vt 0.1254 0.0837 0.0000
vt 0.1765 0.2421 0.0000
vt 0.1672 0.0830 0.0000
vt 0.1672 0.2421 0.0000
vt 0.1585 0.0830 0.0000
vt 0.1417 0.0830 0.0000
vt 0.1498 0.2421 0.0000
vt 0.0213 0.0837 0.0000
vt 0.0436 0.2452 0.0000
vt 0.2524 0.2421 0.0000
vt 0.2304 0.0830 0.0000
vt 0.9367 0.0125 0.0000
vt 0.9903 0.0109 0.0000
vt 0.6470 0.0113 0.0000
vt 0.1336 0.0837 0.0000
vt 0.1417 0.2421 0.0000
vt 0.0212 0.2452 0.0000
vt 0.2524 0.0830 0.0000
# 88 texture coords

g Paper_R
usemtl paper_debris_material
s 1
f 1/1/1 2/2/2 3/3/3 
s off
f 4/4/4 5/5/4 6/4/4 
f 7/6/5 8/7/5 9/8/5 
f 10/9/6 11/10/6 12/9/6 
f 13/11/7 14/12/7 15/13/7 
s 1
f 16/14/8 17/15/9 18/16/10 
f 19/17/11 20/18/12 21/19/11 
s off
f 22/20/13 23/21/13 24/20/13 
f 25/22/14 26/23/14 27/24/14 
s 1
f 28/25/15 29/26/16 30/27/15 
f 21/19/11 31/28/12 32/29/17 
f 32/29/17 33/30/18 1/1/1 
f 6/31/19 34/32/20 35/33/21 
s off
f 36/34/22 25/22/22 37/34/22 
f 14/12/23 36/34/23 38/35/23 
f 15/13/24 39/36/24 13/11/24 
s 1
f 30/27/15 40/37/16 41/38/25 
f 41/38/25 42/39/26 16/14/8 
f 5/40/27 4/41/28 43/42/29 
s off
f 44/43/30 45/44/30 46/43/30 
f 23/21/31 44/43/31 47/45/31 
f 24/20/5 48/46/5 22/20/5 
f 49/8/5 50/46/5 9/8/5 
s 1
f 11/47/11 10/48/12 19/17/11 
s off
f 26/23/32 51/49/32 52/50/32 
s 1
f 12/51/15 53/52/16 28/25/15 
f 2/2/2 14/53/33 35/33/21 
f 3/3/3 44/54/34 1/1/1 
s off
f 5/5/35 54/55/35 34/5/35 
f 6/4/36 55/56/36 4/4/36 
f 11/10/6 8/57/6 53/58/6 
f 12/9/6 56/59/6 10/9/6 
s 1
f 17/15/9 47/60/37 43/42/29 
f 18/16/10 15/61/38 16/14/8 
f 20/18/12 26/62/39 31/28/12 
f 21/19/11 50/63/40 19/17/11 
f 29/26/16 9/64/41 40/37/16 
f 30/27/15 27/65/42 28/25/15 
f 31/28/12 25/66/39 33/30/18 
f 32/29/17 22/67/43 21/19/11 
f 33/30/18 36/68/44 2/2/2 
f 1/1/1 23/69/45 32/29/17 
f 34/32/20 45/70/46 3/3/3 
f 35/33/21 13/71/47 6/31/19 
f 40/37/16 48/72/41 42/39/26 
f 41/38/25 37/73/48 30/27/15 
f 42/39/26 24/74/49 17/15/9 
f 16/14/8 38/75/50 41/38/25 
f 4/41/28 39/76/51 18/16/10 
f 43/42/29 46/77/52 5/40/27 
f 10/48/12 51/78/39 20/18/12 
f 19/17/11 49/79/40 11/47/11 
f 53/52/16 7/80/41 29/26/16 
f 28/25/15 52/81/42 12/51/15 
f 2/2/2 35/33/21 3/3/3 
s off
f 5/5/53 34/5/53 6/4/53 
f 8/7/5 49/8/5 9/8/5 
f 11/10/6 53/58/6 12/9/6 
f 14/12/54 38/35/54 15/13/54 
s 1
f 17/15/9 43/42/29 18/16/10 
f 20/18/12 31/28/12 21/19/11 
s off
f 23/21/55 47/45/55 24/20/55 
f 26/23/14 52/50/14 27/24/14 
s 1
f 29/26/16 40/37/16 30/27/15 
f 31/28/12 33/30/18 32/29/17 
f 33/30/18 2/2/2 1/1/1 
f 34/32/20 3/3/3 35/33/21 
s off
f 25/22/14 27/24/14 37/34/14 
f 36/34/56 37/34/56 38/35/56 
f 39/36/57 55/36/57 13/11/57 
s 1
f 40/37/16 42/39/26 41/38/25 
f 42/39/26 17/15/9 16/14/8 
f 4/41/28 18/16/10 43/42/29 
s off
f 45/44/58 54/82/58 46/43/58 
f 44/43/59 46/43/59 47/45/59 
f 48/46/5 50/46/5 22/20/5 
f 50/46/5 48/46/5 9/8/5 
s 1
f 10/48/12 20/18/12 19/17/11 
s off
f 51/49/60 56/83/60 52/50/60 
s 1
f 53/52/16 29/26/16 28/25/15 
f 14/53/33 13/71/47 35/33/21 
f 44/54/34 23/69/45 1/1/1 
s off
f 54/55/61 45/55/61 34/5/61 
f 55/56/62 39/56/62 4/4/62 
f 8/57/6 7/57/6 53/58/6 
f 56/59/6 51/84/6 10/9/6 
s 1
f 47/60/37 46/77/52 43/42/29 
f 15/61/38 38/75/50 16/14/8 
f 26/62/39 25/66/39 31/28/12 
f 50/63/40 49/79/40 19/17/11 
f 9/64/41 48/72/41 40/37/16 
f 27/65/42 52/81/42 28/25/15 
f 25/66/39 36/68/44 33/30/18 
f 22/67/43 50/63/40 21/19/11 
f 36/68/44 14/53/33 2/2/2 
f 23/69/45 22/67/43 32/29/17 
f 45/70/46 44/54/34 3/3/3 
f 13/71/47 55/85/63 6/31/19 
f 48/72/41 24/74/49 42/39/26 
f 37/73/48 27/65/42 30/27/15 
f 24/74/49 47/60/37 17/15/9 
f 38/75/50 37/73/48 41/38/25 
f 39/76/51 15/61/38 18/16/10 
f 46/77/52 54/86/64 5/40/27 
f 51/78/39 26/62/39 20/18/12 
f 49/79/40 8/87/40 11/47/11 
f 7/80/41 9/64/41 29/26/16 
f 52/81/42 56/88/42 12/51/15 
# 108 faces

