# 3ds Max Wavefront OBJ Exporter v0.97b - (c)2007 guruware
# File Created: 18.10.2016 18:53:50

mtllib Paper_P.mtl

#
# object Paper_P
#

v  58.7350 -2.1443 16.5864
v  61.9441 -2.1325 16.5864
v  58.7714 -2.1318 -1.1730
v  54.2803 -3.1492 -1.1963
v  54.2813 -3.1519 -1.1963
v  54.1483 -3.2192 16.5625
v  61.9438 -2.1351 16.5864
v  66.2303 -3.1520 -1.1936
v  66.2313 -3.1494 -1.1936
v  66.3794 -3.1330 16.5652
v  61.9067 -2.1420 -1.1730
v  58.7717 -2.1346 -1.1730
v  61.9064 -2.1448 -1.1730
v  58.7353 -2.1469 16.5864
v  65.0548 -2.7019 16.5742
v  64.9409 -2.7193 -1.1849
v  55.6417 -2.7061 -1.1861
v  54.1474 -3.2168 16.5625
v  55.5369 -2.7539 16.5730
v  55.5376 -2.7564 16.5730
v  65.0541 -2.7044 16.5742
v  66.3785 -3.1355 16.5652
v  64.9401 -2.7220 -1.1849
v  55.6425 -2.7088 -1.1861
# 24 vertices

vn -0.0955 0.9954 0.0011
vn 0.0889 0.9960 -0.0002
vn -0.0894 0.9960 -0.0000
vn -0.9392 -0.3433 -0.0083
vn -0.0000 0.0051 1.0000
vn 0.9374 -0.3482 -0.0075
vn 0.0000 -0.0024 -1.0000
vn 0.0894 -0.9960 -0.0011
vn -0.0951 -0.9955 0.0002
vn 0.0955 -0.9954 0.0001
vn 0.2457 0.9693 -0.0020
vn 0.3098 0.9508 -0.0029
vn 0.2519 0.9678 -0.0028
vn 0.0951 0.9955 -0.0013
vn -0.2461 0.9692 0.0009
vn -0.3157 0.9489 0.0007
vn -0.2522 0.9677 0.0011
vn -0.0077 0.0005 1.0000
vn -0.0046 0.0021 1.0000
vn 0.0078 0.0031 1.0000
vn 0.0048 0.0047 1.0000
vn -0.0069 -0.0005 -1.0000
vn -0.0039 0.0004 -1.0000
vn 0.0069 0.0019 -1.0000
vn 0.0045 -0.0020 -1.0000
vn -0.2517 -0.9678 0.0020
vn -0.3158 -0.9488 0.0030
vn -0.2455 -0.9694 0.0028
vn -0.0889 -0.9960 0.0013
vn 0.2519 -0.9678 -0.0006
vn 0.3157 -0.9489 -0.0007
vn 0.2457 -0.9693 -0.0014
vn -0.9368 -0.3499 -0.0083
vn -0.0000 0.0025 1.0000
vn 0.9368 -0.3498 -0.0075
vn 0.0000 -0.0000 -1.0000
vn 0.3162 0.9487 -0.0035
vn -0.3095 0.9509 0.0013
vn -0.0075 -0.0001 1.0000
vn -0.0045 0.0014 1.0000
vn 0.0076 0.0026 1.0000
vn 0.0047 0.0040 1.0000
vn -0.0068 0.0000 -1.0000
vn -0.0042 -0.0013 -1.0000
vn 0.0074 0.0002 -1.0000
vn 0.0040 0.0011 -1.0000
vn -0.3095 -0.9509 0.0035
vn 0.3095 -0.9509 -0.0013
# 48 vertex normals

vt 0.5910 0.4187 0.0000
vt 0.5621 0.4187 0.0000
vt 0.5910 0.2572 0.0000
vt 0.6420 0.0102 0.0000
vt 0.9887 0.0113 0.0000
vt 0.7851 0.0104 0.0000
vt 0.8471 0.0112 0.0000
vt 0.6470 0.0114 0.0000
vt 0.6470 0.0113 0.0000
vt 0.9938 0.0115 0.0000
vt 0.8387 0.0105 0.0000
vt 0.9007 0.0106 0.0000
vt 0.6820 0.2566 0.0000
vt 0.7104 0.2566 0.0000
vt 0.6820 0.4157 0.0000
vt 0.5333 0.4187 0.0000
vt 0.5204 0.4187 0.0000
vt 0.5333 0.2572 0.0000
vt 0.5621 0.2572 0.0000
vt 0.6199 0.2572 0.0000
vt 0.6328 0.4187 0.0000
vt 0.6199 0.4187 0.0000
vt 0.9091 0.0120 0.0000
vt 0.9367 0.0124 0.0000
vt 0.9091 0.0121 0.0000
vt 0.8471 0.0113 0.0000
vt 0.7231 0.0096 0.0000
vt 0.6955 0.0092 0.0000
vt 0.7231 0.0095 0.0000
vt 0.9627 0.0108 0.0000
vt 0.9903 0.0108 0.0000
vt 0.9007 0.0107 0.0000
vt 0.7766 0.0104 0.0000
vt 0.7491 0.0103 0.0000
vt 0.7766 0.0103 0.0000
vt 0.7389 0.2566 0.0000
vt 0.7515 0.2566 0.0000
vt 0.7389 0.4157 0.0000
vt 0.7104 0.4157 0.0000
vt 0.6535 0.4157 0.0000
vt 0.6408 0.4157 0.0000
vt 0.6535 0.2566 0.0000
vt 0.5204 0.2572 0.0000
vt 0.6328 0.2572 0.0000
vt 0.9367 0.0125 0.0000
vt 0.6955 0.0091 0.0000
vt 0.9903 0.0109 0.0000
vt 0.7515 0.4157 0.0000
vt 0.6408 0.2566 0.0000
# 49 texture coords

g Paper_P
usemtl paper_debris_material
s 1
f 1/1/1 2/2/2 3/3/3 
s off
f 4/4/4 5/4/4 6/5/4 
f 2/6/5 1/7/5 7/6/5 
f 8/8/6 9/9/6 10/10/6 
f 3/11/7 11/12/7 12/11/7 
s 1
f 12/13/8 13/14/9 14/15/10 
f 15/16/11 10/17/12 16/18/13 
f 2/2/2 15/16/11 11/19/14 
f 17/20/15 18/21/16 19/22/17 
f 3/3/3 17/20/15 1/1/1 
s off
f 19/23/18 18/24/18 20/25/18 
f 1/7/19 19/23/19 14/26/19 
f 21/27/20 22/28/20 15/29/20 
f 7/6/21 21/27/21 2/6/21 
f 16/30/22 9/31/22 23/30/22 
f 11/12/23 16/30/23 13/32/23 
f 24/33/24 5/34/24 17/35/24 
f 12/11/25 24/33/25 3/11/25 
s 1
f 23/36/26 8/37/27 21/38/28 
f 13/14/9 23/36/26 7/39/29 
f 20/40/30 6/41/31 24/42/32 
f 14/15/10 20/40/30 12/13/8 
f 2/2/2 11/19/14 3/3/3 
s off
f 6/5/33 18/5/33 4/4/33 
f 1/7/34 14/26/34 7/6/34 
f 10/10/35 22/10/35 8/8/35 
f 11/12/36 13/32/36 12/11/36 
s 1
f 13/14/9 7/39/29 14/15/10 
f 10/17/12 9/43/37 16/18/13 
f 15/16/11 16/18/13 11/19/14 
f 17/20/15 4/44/38 18/21/16 
f 17/20/15 19/22/17 1/1/1 
s off
f 18/24/39 6/45/39 20/25/39 
f 19/23/40 20/25/40 14/26/40 
f 22/28/41 10/46/41 15/29/41 
f 21/27/42 15/29/42 2/6/42 
f 9/31/43 8/47/43 23/30/43 
f 16/30/44 23/30/44 13/32/44 
f 5/34/45 4/34/45 17/35/45 
f 24/33/46 17/35/46 3/11/46 
s 1
f 8/37/27 22/48/47 21/38/28 
f 23/36/26 21/38/28 7/39/29 
f 6/41/31 5/49/48 24/42/32 
f 20/40/30 24/42/32 12/13/8 
# 44 faces

