# 3ds Max Wavefront OBJ Exporter v0.97b - (c)2007 guruware
# File Created: 18.10.2016 17:57:05

mtllib Paper_H.mtl

#
# object Paper_H
#

v  48.9654 -3.2337 24.4321
v  41.4890 -3.2337 24.4321
v  48.9654 -3.2333 30.8629
v  39.0498 -3.2365 24.4320
v  39.0498 -3.2359 30.8630
v  39.0498 -3.2337 24.4321
v  48.9654 -2.9146 36.4978
v  41.4890 -3.0443 36.4978
v  48.9654 -2.9172 36.4982
v  51.4045 -3.2337 24.4321
v  51.4045 -3.2333 30.8629
v  51.4045 -3.2365 24.4320
v  41.4890 -3.0445 18.7894
v  48.9654 -3.0445 18.7894
v  41.4890 -3.0473 18.7891
v  41.4890 -3.2365 24.4320
v  48.9654 -3.2365 24.4320
v  41.4890 -3.2376 30.8631
v  41.4890 -3.2349 30.8629
v  39.0498 -3.0469 36.4982
v  39.0498 -3.2333 30.8629
v  39.0498 -2.4373 18.8694
v  51.4045 -2.8901 36.4978
v  51.4045 -3.2359 30.8630
v  51.4045 -3.0473 18.7890
v  48.9654 -3.0473 18.7890
v  41.4890 -3.0469 36.4982
v  48.9654 -3.2359 30.8630
v  39.0498 -3.0443 36.4978
v  51.4045 -2.8927 36.4982
v  51.4045 -3.0445 18.7894
v  39.0498 -2.4401 18.8690
# 32 vertices

vn 0.0000 0.9999 0.0167
vn 0.0163 0.9992 0.0369
vn -0.0007 0.9996 -0.0290
vn -1.0000 0.0000 0.0000
vn -0.0023 0.1326 0.9912
vn 1.0000 -0.0000 -0.0000
vn -0.0000 0.1294 -0.9916
vn -0.0000 -0.9999 -0.0168
vn 0.0000 -0.9999 -0.0167
vn -0.0002 -0.9999 0.0168
vn 0.0000 0.9994 0.0335
vn 0.1212 0.9921 0.0333
vn -0.0086 0.9994 -0.0337
vn -0.0086 0.9986 -0.0518
vn -0.0023 0.9998 -0.0192
vn -1.0000 0.0000 -0.0000
vn 1.0000 -0.0000 0.0000
vn -0.0000 -0.9994 -0.0335
vn 0.0124 -0.9982 0.0581
vn 0.0036 -0.9993 0.0385
vn 0.0026 -0.9997 0.0260
vn 0.0001 0.9975 0.0711
vn 0.0000 0.9995 -0.0304
vn 0.0000 0.1342 0.9910
vn -0.0013 0.1326 0.9912
vn 0.0000 0.1305 -0.9914
vn -0.0003 0.1294 -0.9916
vn -0.0000 -0.9999 -0.0167
vn -0.0006 -0.9999 0.0167
vn 0.1809 0.9816 0.0612
vn -0.0074 0.9983 -0.0576
vn 0.0006 0.9999 -0.0169
vn -0.0000 -0.9999 -0.0142
vn -0.0002 -0.9994 0.0338
vn 0.0013 -0.9996 0.0289
vn -0.0023 0.1342 0.9910
vn -0.0000 0.1305 -0.9914
vn 0.0000 0.1345 0.9909
vn -0.0000 0.1317 -0.9913
vn -0.0006 0.1282 -0.9917
vn 0.0000 0.9994 -0.0335
vn -0.2435 -0.9601 -0.1374
vn 0.0100 -0.9981 0.0608
# 43 vertex normals

vt 0.0424 0.4941 0.0000
vt 0.1104 0.4941 0.0000
vt 0.0424 0.5528 0.0000
vt 0.7523 0.0105 0.0000
vt 0.8785 0.0109 0.0000
vt 0.7523 0.0106 0.0000
vt 0.7431 0.0098 0.0000
vt 0.8891 0.0118 0.0000
vt 0.7573 0.0114 0.0000
vt 0.8835 0.0114 0.0000
vt 0.7967 0.0104 0.0000
vt 0.9427 0.0107 0.0000
vt 0.1625 0.4926 0.0000
vt 0.2295 0.4926 0.0000
vt 0.1625 0.5505 0.0000
vt 0.0424 0.4427 0.0000
vt 0.1104 0.4427 0.0000
vt 0.1104 0.6042 0.0000
vt 0.0424 0.6042 0.0000
vt 0.1104 0.5528 0.0000
vt 0.9887 0.0113 0.0000
vt 0.8785 0.0110 0.0000
vt 0.6420 0.0102 0.0000
vt 0.9938 0.0115 0.0000
vt 0.8835 0.0115 0.0000
vt 0.6470 0.0114 0.0000
vt 0.1625 0.4420 0.0000
vt 0.2295 0.4420 0.0000
vt 0.2295 0.6011 0.0000
vt 0.1625 0.6011 0.0000
vt 0.2295 0.5505 0.0000
vt 0.1326 0.4941 0.0000
vt 0.0202 0.5528 0.0000
vt 0.9367 0.0124 0.0000
vt 0.6955 0.0092 0.0000
vt 0.9903 0.0108 0.0000
vt 0.9427 0.0108 0.0000
vt 0.7491 0.0103 0.0000
vt 0.2514 0.4926 0.0000
vt 0.1407 0.5505 0.0000
vt 0.1326 0.4427 0.0000
vt 0.0202 0.4941 0.0000
vt 0.0202 0.6042 0.0000
vt 0.1326 0.5528 0.0000
vt 0.2514 0.4420 0.0000
vt 0.1407 0.4926 0.0000
vt 0.1407 0.6011 0.0000
vt 0.2514 0.5505 0.0000
vt 0.6470 0.0113 0.0000
vt 0.9367 0.0125 0.0000
vt 0.6955 0.0091 0.0000
vt 0.9903 0.0109 0.0000
vt 0.0202 0.4427 0.0000
vt 0.1326 0.6042 0.0000
vt 0.1407 0.4420 0.0000
vt 0.2513 0.6011 0.0000
# 56 texture coords

g Paper_H
usemtl paper_debris_material
s 1048576
f 1/1/1 2/2/2 3/3/3 
s off
f 4/4/4 5/5/4 6/6/4 
f 7/7/5 8/8/5 9/7/5 
f 10/9/6 11/10/6 12/9/6 
f 13/11/7 14/12/7 15/11/7 
s 8192
f 16/13/8 17/14/9 18/15/10 
s 1048576
f 14/16/11 13/17/12 1/1/1 
f 8/18/13 7/19/14 19/20/15 
s off
f 5/5/16 20/21/16 21/22/16 
f 6/6/16 22/23/16 4/4/16 
f 11/10/6 23/24/6 24/25/6 
f 12/9/17 25/26/17 10/9/17 
s 8192
f 15/27/18 26/28/18 16/13/8 
f 9/29/19 27/30/20 28/31/21 
s 1048576
f 2/2/2 6/32/22 19/20/15 
f 3/3/3 11/33/23 1/1/1 
s off
f 8/8/24 29/34/24 27/8/24 
f 9/7/25 30/35/25 7/7/25 
f 14/12/26 31/36/26 26/37/26 
f 15/11/27 32/38/27 13/11/27 
s 8192
f 17/14/9 12/39/28 28/31/21 
f 18/15/10 5/40/29 16/13/8 
s 1048576
f 13/17/12 22/41/30 2/2/2 
f 1/1/1 10/42/1 14/16/11 
f 7/19/14 23/43/31 3/3/3 
f 19/20/15 21/44/32 8/18/13 
s 8192
f 26/28/18 25/45/18 17/14/9 
f 16/13/8 4/46/33 15/27/18 
f 27/30/20 20/47/34 18/15/10 
f 28/31/21 24/48/35 9/29/19 
s 1048576
f 2/2/2 19/20/15 3/3/3 
s off
f 5/5/4 21/22/4 6/6/4 
f 8/8/36 27/8/36 9/7/36 
f 11/10/6 24/25/6 12/9/6 
f 14/12/37 26/37/37 15/11/37 
s 8192
f 17/14/9 28/31/21 18/15/10 
s 1048576
f 13/17/12 2/2/2 1/1/1 
f 7/19/14 3/3/3 19/20/15 
s off
f 20/21/16 29/21/16 21/22/16 
f 22/23/16 32/23/16 4/4/16 
f 23/24/6 30/24/6 24/25/6 
f 25/26/17 31/49/17 10/9/17 
s 8192
f 26/28/18 17/14/9 16/13/8 
f 27/30/20 18/15/10 28/31/21 
s 1048576
f 6/32/22 21/44/32 19/20/15 
f 11/33/23 10/42/1 1/1/1 
s off
f 29/34/38 20/50/38 27/8/38 
f 30/35/25 23/51/25 7/7/25 
f 31/36/39 25/52/39 26/37/39 
f 32/38/40 22/38/40 13/11/40 
s 8192
f 12/39/28 24/48/35 28/31/21 
f 5/40/29 4/46/33 16/13/8 
s 1048576
f 22/41/30 6/32/22 2/2/2 
f 10/42/1 31/53/11 14/16/11 
f 23/43/31 11/33/23 3/3/3 
f 21/44/32 29/54/41 8/18/13 
s 8192
f 25/45/18 12/39/28 17/14/9 
s 1048576
f 4/46/42 32/55/42 15/27/42 
s 8192
f 20/47/34 5/40/29 18/15/10 
f 24/48/35 30/56/43 9/29/19 
# 60 faces

