# 3ds Max Wavefront OBJ Exporter v0.97b - (c)2007 guruware
# File Created: 18.10.2016 17:56:28

mtllib Paper_D.mtl

#
# object Paper_D
#

v  17.2456 -3.2812 49.7962
v  10.5796 -3.2812 49.7961
v  17.2456 -3.1071 54.2139
v  7.7960 -2.6896 45.4013
v  7.7962 -2.7536 49.7958
v  7.7966 -2.6870 45.4018
v  17.2458 -2.5841 58.6039
v  10.5799 -2.5804 58.6036
v  17.2461 -2.5866 58.6044
v  20.0281 -2.6837 45.4029
v  20.0283 -2.7509 49.7964
v  20.0288 -2.6864 45.4024
v  10.5794 -1.8064 41.3382
v  17.2453 -1.8030 41.3396
v  10.5790 -1.8089 41.3369
v  10.5793 -3.2839 49.7961
v  17.2459 -3.2839 49.7962
v  10.5794 -3.1078 54.2139
v  17.2454 -2.7505 43.3373
v  17.2455 -3.2044 45.2985
v  10.5795 -3.2062 45.2981
v  10.5798 -2.8863 56.4138
v  7.7965 -2.5785 54.1717
v  7.7966 -2.3612 56.3510
v  7.7971 -2.5759 54.1715
v  7.7969 -2.7509 49.7958
v  7.7965 -2.2705 43.5532
v  20.0285 -2.5792 54.1722
v  20.0287 -2.3636 56.3516
v  20.0292 -2.5818 54.1724
v  20.0290 -2.7536 49.7964
v  20.0286 -2.2684 43.5544
v  17.2457 -1.8055 41.3384
v  10.5791 -2.7556 43.3351
v  10.5792 -3.2089 45.2975
v  17.2458 -3.2071 45.2979
v  10.5796 -2.5829 58.6040
v  17.2460 -2.8916 56.4144
v  9.1808 -3.0551 49.7960
v  10.5797 -3.1052 54.2137
v  18.6445 -2.8820 54.1961
v  9.1812 -2.3564 58.5678
v  18.6452 -2.3641 58.5688
v  18.6440 -1.6000 41.4409
v  9.1799 -1.6072 41.4375
v  18.6449 -3.0577 49.7963
v  17.2460 -3.1097 54.2141
v  9.1805 -2.8820 54.1959
v  9.1804 -1.6047 41.4387
v  10.5795 -2.7530 43.3363
v  18.6442 -2.9823 45.3430
v  9.1807 -2.9848 45.3423
v  18.6444 -3.0551 49.7963
v  18.6447 -2.3615 58.5684
v  17.2457 -2.8890 56.4141
v  9.1810 -2.8794 54.1957
v  18.6445 -1.6024 41.4396
v  17.2458 -2.7530 43.3362
v  9.1801 -2.9875 45.3418
v  18.6448 -2.9850 45.3424
v  9.1803 -3.0577 49.7960
v  9.1807 -2.3589 58.5682
v  10.5794 -2.8888 56.4141
v  18.6450 -2.8846 54.1963
v  20.0295 -2.0644 58.5211
v  20.0278 -1.3271 41.5770
v  18.6441 -2.5438 43.4304
v  20.0288 -2.0620 58.5207
v  18.6446 -2.6651 56.3874
v  20.0285 -1.3296 41.5758
v  18.6447 -2.5463 43.4293
v  18.6451 -2.6676 56.3877
v  7.7974 -2.0553 58.5196
v  7.7956 -1.3356 41.5727
v  7.7963 -1.3332 41.5740
v  9.1806 -2.5474 43.4288
v  9.1811 -2.6612 56.3869
v  9.1800 -2.5499 43.4277
v  7.7968 -2.0578 58.5200
v  9.1806 -2.6637 56.3872
v  7.7972 -2.3586 56.3507
v  20.0293 -2.3662 56.3519
v  7.7958 -2.2730 43.5521
v  20.0280 -2.2660 43.5556
# 84 vertices

vn -0.0800 0.9967 -0.0111
vn 0.0798 0.9967 -0.0117
vn -0.0797 0.9944 -0.0689
vn -0.9693 0.2457 0.0036
vn 0.0000 0.1600 0.9871
vn 0.9687 0.2481 0.0037
vn -0.0000 0.4454 -0.8953
vn -0.0799 -0.9967 0.0115
vn 0.0798 -0.9967 0.0113
vn -0.0802 -0.9944 0.0692
vn -0.0805 0.9006 0.4271
vn 0.0795 0.9008 0.4268
vn -0.0800 0.9413 0.3280
vn -0.0798 0.9893 0.1218
vn 0.0791 0.9894 0.1216
vn 0.0805 0.9872 -0.1379
vn -0.0795 0.9873 -0.1375
vn 0.0804 0.9897 -0.1183
vn -0.9701 0.2415 -0.0240
vn -0.9703 0.2417 -0.0096
vn -0.9703 0.2361 0.0533
vn 0.9710 0.2379 -0.0236
vn 0.9697 0.2440 -0.0096
vn 0.9697 0.2383 0.0538
vn -0.0794 -0.9009 -0.4268
vn 0.0804 -0.9006 -0.4271
vn -0.0792 -0.9415 -0.3276
vn -0.0793 -0.9894 -0.1214
vn 0.0797 -0.9893 -0.1219
vn 0.0794 -0.9873 0.1375
vn -0.0804 -0.9872 0.1379
vn 0.0795 -0.9898 0.1179
vn 0.1869 0.9823 -0.0121
vn 0.0802 0.9944 -0.0693
vn -0.1868 0.9801 -0.0678
vn 0.0006 0.1612 0.9869
vn -0.0004 0.1599 0.9871
vn -0.0001 0.4470 -0.8945
vn -0.0001 0.4454 -0.8953
vn 0.1869 -0.9823 0.0115
vn 0.0797 -0.9944 0.0688
vn -0.1873 -0.9799 0.0683
vn 0.1866 0.8879 0.4206
vn 0.0792 0.9415 0.3276
vn -0.1865 0.9753 0.1187
vn 0.1859 0.9754 0.1185
vn -0.1870 0.9823 -0.0111
vn -0.1866 0.9731 -0.1354
vn -0.0795 0.9898 -0.1179
vn 0.1873 0.9799 -0.0683
vn 0.1876 -0.8875 -0.4210
vn 0.0800 -0.9413 -0.3280
vn -0.1859 -0.9754 -0.1181
vn 0.1864 -0.9752 -0.1190
vn -0.1870 -0.9823 0.0117
vn -0.1876 -0.9728 0.1360
vn -0.0804 -0.9897 0.1184
vn 0.1868 -0.9801 0.0677
vn -0.2144 0.9744 -0.0673
vn -0.0005 0.1597 0.9872
vn -0.0003 0.4476 -0.8942
vn 0.2146 -0.9766 0.0118
vn -0.2135 0.9701 0.1156
vn -0.1869 0.9281 0.3220
vn -0.2143 0.9767 -0.0113
vn -0.2141 0.9675 -0.1346
vn -0.1867 0.9755 -0.1161
vn 0.2151 -0.8823 -0.4186
vn 0.1869 -0.9281 -0.3220
vn 0.2138 -0.9700 -0.1160
vn 0.2143 -0.9744 0.0672
vn 0.1867 -0.9755 0.1161
vn 0.2146 0.9766 -0.0124
vn 0.0008 0.1616 0.9868
vn -0.0003 0.4448 -0.8956
vn -0.2149 -0.9743 0.0679
vn 0.2141 0.8828 0.4181
vn 0.1861 0.9285 0.3214
vn 0.2133 0.9702 0.1154
vn 0.2149 0.9743 -0.0679
vn 0.1875 0.9753 -0.1167
vn -0.2129 -0.9703 -0.1149
vn -0.1861 -0.9285 -0.3214
vn -0.2143 -0.9767 0.0120
vn -0.2151 -0.9672 0.1352
vn -0.1875 -0.9753 0.1167
vn -0.9704 0.2390 -0.0333
vn 0.9704 0.2390 -0.0333
vn 0.1876 0.9728 -0.1360
vn 0.1866 -0.9731 0.1355
vn -0.2142 0.9699 -0.1154
vn 0.2142 -0.9699 0.1154
vn 0.2141 -0.9675 0.1346
vn 0.2150 0.9697 -0.1161
vn 0.2151 0.9672 -0.1352
vn -0.2150 -0.9697 0.1161
vn -0.9702 0.2188 0.1037
vn 0.9702 0.2188 0.1038
vn -0.1876 0.8875 0.4210
vn -0.1866 -0.8879 -0.4206
vn -0.2142 0.9237 0.3178
vn -0.2151 0.8823 0.4186
vn 0.2142 -0.9237 -0.3178
vn 0.2134 0.9241 0.3171
vn -0.2134 -0.9241 -0.3171
vn -0.2141 -0.8828 -0.4181
vn -0.9703 0.2417 0.0036
vn 0.0000 0.1613 0.9869
vn 0.9698 0.2440 0.0037
vn -0.0000 0.4470 -0.8945
vn -0.9704 0.2402 -0.0239
vn -0.9701 0.2426 -0.0097
vn -0.9691 0.2406 0.0543
vn 0.9704 0.2401 -0.0238
vn 0.9710 0.2391 -0.0094
vn 0.9690 0.2408 0.0544
vn 0.0006 0.1617 0.9868
vn -0.0004 0.1598 0.9872
vn -0.0002 0.4476 -0.8942
vn -0.0002 0.4448 -0.8956
vn -0.0003 0.1588 0.9873
vn -0.0004 0.4482 -0.8939
vn 0.0009 0.1620 0.9868
vn -0.0003 0.4445 -0.8958
vn -0.9702 0.2401 -0.0335
vn 0.9705 0.2388 -0.0333
vn -0.9702 0.2189 0.1038
vn 0.9702 0.2189 0.1038
# 128 vertex normals

vt 0.7811 0.9047 0.0000
vt 0.8419 0.9047 0.0000
vt 0.7811 0.9451 0.0000
vt 0.7287 0.0104 0.0000
vt 0.8154 0.0107 0.0000
vt 0.7287 0.0105 0.0000
vt 0.7508 0.0099 0.0000
vt 0.8814 0.0117 0.0000
vt 0.7508 0.0100 0.0000
vt 0.7337 0.0114 0.0000
vt 0.8204 0.0114 0.0000
vt 0.8044 0.0104 0.0000
vt 0.9349 0.0107 0.0000
vt 0.9012 0.9028 0.0000
vt 0.9611 0.9028 0.0000
vt 0.9012 0.9426 0.0000
vt 0.7811 0.8240 0.0000
vt 0.8419 0.8240 0.0000
vt 0.7811 0.8441 0.0000
vt 0.7811 0.8643 0.0000
vt 0.8419 0.8643 0.0000
vt 0.8419 0.9855 0.0000
vt 0.7811 0.9854 0.0000
vt 0.8419 0.9653 0.0000
vt 0.9021 0.0110 0.0000
vt 0.9454 0.0111 0.0000
vt 0.8154 0.0108 0.0000
vt 0.6853 0.0104 0.0000
vt 0.9071 0.0114 0.0000
vt 0.9504 0.0115 0.0000
vt 0.9071 0.0115 0.0000
vt 0.8204 0.0115 0.0000
vt 0.6903 0.0114 0.0000
vt 0.9012 0.8233 0.0000
vt 0.9611 0.8233 0.0000
vt 0.9012 0.8432 0.0000
vt 0.9012 0.8631 0.0000
vt 0.9611 0.8631 0.0000
vt 0.9611 0.9824 0.0000
vt 0.9012 0.9824 0.0000
vt 0.9611 0.9625 0.0000
vt 0.8548 0.9047 0.0000
vt 0.8419 0.9451 0.0000
vt 0.7682 0.9451 0.0000
vt 0.9090 0.0120 0.0000
vt 0.7232 0.0096 0.0000
vt 0.9626 0.0108 0.0000
vt 0.9349 0.0108 0.0000
vt 0.7767 0.0104 0.0000
vt 0.9738 0.9028 0.0000
vt 0.9611 0.9426 0.0000
vt 0.8885 0.9426 0.0000
vt 0.8548 0.8240 0.0000
vt 0.8419 0.8441 0.0000
vt 0.7682 0.8643 0.0000
vt 0.8548 0.8643 0.0000
vt 0.7682 0.9047 0.0000
vt 0.7682 0.9854 0.0000
vt 0.7811 0.9653 0.0000
vt 0.8548 0.9451 0.0000
vt 0.9738 0.8233 0.0000
vt 0.9611 0.8432 0.0000
vt 0.8885 0.8631 0.0000
vt 0.9738 0.8631 0.0000
vt 0.8885 0.9028 0.0000
vt 0.8885 0.9824 0.0000
vt 0.9012 0.9625 0.0000
vt 0.9738 0.9426 0.0000
vt 0.7553 0.9451 0.0000
vt 0.6955 0.0092 0.0000
vt 0.7232 0.0095 0.0000
vt 0.9903 0.0108 0.0000
vt 0.9865 0.9028 0.0000
vt 0.7553 0.8643 0.0000
vt 0.7682 0.8441 0.0000
vt 0.7553 0.9047 0.0000
vt 0.7553 0.9854 0.0000
vt 0.7682 0.9653 0.0000
vt 0.9865 0.8233 0.0000
vt 0.9738 0.8432 0.0000
vt 0.9865 0.8631 0.0000
vt 0.9865 0.9426 0.0000
vt 0.9738 0.9625 0.0000
vt 0.8677 0.9047 0.0000
vt 0.9367 0.0124 0.0000
vt 0.9090 0.0121 0.0000
vt 0.7491 0.0103 0.0000
vt 0.7767 0.0103 0.0000
vt 0.8758 0.9426 0.0000
vt 0.8677 0.8240 0.0000
vt 0.8548 0.8441 0.0000
vt 0.8677 0.8643 0.0000
vt 0.8677 0.9451 0.0000
vt 0.8548 0.9653 0.0000
vt 0.8758 0.8631 0.0000
vt 0.8885 0.8432 0.0000
vt 0.8758 0.9028 0.0000
vt 0.8758 0.9824 0.0000
vt 0.8885 0.9625 0.0000
vt 0.9887 0.0113 0.0000
vt 0.9454 0.0112 0.0000
vt 0.9938 0.0115 0.0000
vt 0.8548 0.9855 0.0000
vt 0.9738 0.9824 0.0000
vt 0.7553 0.9653 0.0000
vt 0.9865 0.9625 0.0000
vt 0.9865 0.9824 0.0000
vt 0.8677 0.9653 0.0000
vt 0.8677 0.9855 0.0000
vt 0.8758 0.9625 0.0000
vt 0.6420 0.0102 0.0000
vt 0.6853 0.0103 0.0000
vt 0.6470 0.0114 0.0000
vt 0.6903 0.0113 0.0000
vt 0.7682 0.8240 0.0000
vt 0.8885 0.8233 0.0000
vt 0.7553 0.8441 0.0000
vt 0.7553 0.8240 0.0000
vt 0.9865 0.8432 0.0000
vt 0.8677 0.8441 0.0000
vt 0.8758 0.8432 0.0000
vt 0.8758 0.8233 0.0000
vt 0.6955 0.0091 0.0000
vt 0.9903 0.0109 0.0000
vt 0.9367 0.0125 0.0000
vt 0.6470 0.0113 0.0000
# 126 texture coords

g Paper_D
usemtl paper_debris_material
s 1
f 1/1/1 2/2/2 3/3/3 
s off
f 4/4/4 5/5/4 6/6/4 
f 7/7/5 8/8/5 9/9/5 
f 10/10/6 11/11/6 12/10/6 
f 13/12/7 14/13/7 15/12/7 
s 1
f 16/14/8 17/15/9 18/16/10 
f 14/17/11 13/18/12 19/19/13 
f 20/20/14 21/21/15 1/1/1 
f 8/22/16 7/23/17 22/24/18 
s off
f 23/25/19 24/26/19 25/25/19 
f 5/5/20 23/25/20 26/27/20 
f 6/6/21 27/28/21 4/4/21 
f 28/29/22 29/30/22 30/31/22 
f 11/11/23 28/29/23 31/32/23 
f 12/10/24 32/33/24 10/10/24 
s 1
f 15/34/25 33/35/26 34/36/27 
f 35/37/28 36/38/29 16/14/8 
f 9/39/30 37/40/31 38/41/32 
f 2/2/2 39/42/33 40/43/34 
f 3/3/3 41/44/35 1/1/1 
s off
f 8/8/36 42/45/36 37/8/36 
f 9/9/37 43/46/37 7/7/37 
f 14/13/38 44/47/38 33/48/38 
f 15/12/39 45/49/39 13/12/39 
s 1
f 17/15/9 46/50/40 47/51/41 
f 18/16/10 48/52/42 16/14/8 
f 13/18/12 49/53/43 50/54/44 
f 20/20/14 51/55/45 19/19/13 
f 21/21/15 52/56/46 2/2/2 
f 1/1/1 53/57/47 20/20/14 
f 7/23/17 54/58/48 55/59/49 
f 40/43/34 56/60/50 22/24/18 
f 33/35/26 57/61/51 58/62/52 
f 35/37/28 59/63/53 34/36/27 
f 36/38/29 60/64/54 17/15/9 
f 16/14/8 61/65/55 35/37/28 
f 37/40/31 62/66/56 63/67/57 
f 47/51/41 64/68/58 38/41/32 
f 41/44/35 28/69/59 53/57/47 
s off
f 43/46/60 65/70/60 54/71/60 
f 44/47/61 66/72/61 57/47/61 
s 1
f 46/50/40 31/73/62 64/68/58 
f 51/55/45 10/74/63 67/75/64 
f 53/57/47 11/76/65 51/55/45 
f 54/58/48 68/77/66 69/78/67 
f 57/61/51 70/79/68 71/80/69 
f 60/64/54 12/81/70 46/50/40 
f 64/68/58 30/82/71 72/83/72 
f 39/42/33 26/84/73 56/60/50 
s off
f 42/45/74 73/85/74 62/86/74 
f 45/49/75 74/87/75 49/88/75 
s 1
f 48/52/42 23/89/76 61/65/55 
f 49/53/43 75/90/77 76/91/78 
f 52/56/46 6/92/79 39/42/33 
f 56/60/50 25/93/80 77/94/81 
f 59/63/53 4/95/82 78/96/83 
f 61/65/55 5/97/84 59/63/53 
f 62/66/56 79/98/85 80/99/86 
f 55/59/49 3/3/3 22/24/18 
s off
f 24/26/87 79/100/87 81/101/87 
f 29/30/88 68/102/88 82/30/88 
s 1
f 63/67/57 18/16/10 38/41/32 
f 69/78/67 41/44/35 55/59/49 
f 77/94/81 42/103/89 22/24/18 
f 80/99/86 48/52/42 63/67/57 
f 72/83/72 43/104/90 38/41/32 
f 29/105/91 28/69/59 69/78/67 
f 82/106/92 65/107/93 72/83/72 
f 81/108/94 73/109/95 77/94/81 
f 24/110/96 23/89/76 80/99/86 
f 50/54/44 21/21/15 19/19/13 
s off
f 27/28/97 75/111/97 83/112/97 
f 32/33/98 70/113/98 84/114/98 
s 1
f 58/62/52 36/38/29 34/36/27 
f 76/91/78 52/56/46 50/54/44 
f 67/75/64 44/115/99 19/19/13 
f 71/80/69 60/64/54 58/62/52 
f 78/96/83 45/116/100 34/36/27 
f 84/117/101 66/118/102 67/75/64 
f 32/119/103 12/81/70 71/80/69 
f 27/120/104 6/92/79 76/91/78 
f 83/121/105 74/122/106 78/96/83 
f 2/2/2 40/43/34 3/3/3 
s off
f 5/5/107 26/27/107 6/6/107 
f 8/8/108 37/8/108 9/9/108 
f 11/11/109 31/32/109 12/10/109 
f 14/13/110 33/48/110 15/12/110 
s 1
f 17/15/9 47/51/41 18/16/10 
f 13/18/12 50/54/44 19/19/13 
f 21/21/15 2/2/2 1/1/1 
f 7/23/17 55/59/49 22/24/18 
s off
f 24/26/111 81/101/111 25/25/111 
f 23/25/112 25/25/112 26/27/112 
f 27/28/113 83/112/113 4/4/113 
f 29/30/114 82/30/114 30/31/114 
f 28/29/115 30/31/115 31/32/115 
f 32/33/116 84/114/116 10/10/116 
s 1
f 33/35/26 58/62/52 34/36/27 
f 36/38/29 17/15/9 16/14/8 
f 37/40/31 63/67/57 38/41/32 
f 39/42/33 56/60/50 40/43/34 
f 41/44/35 53/57/47 1/1/1 
s off
f 42/45/117 62/86/117 37/8/117 
f 43/46/118 54/71/118 7/7/118 
f 44/47/119 57/47/119 33/48/119 
f 45/49/120 49/88/120 13/12/120 
s 1
f 46/50/40 64/68/58 47/51/41 
f 48/52/42 61/65/55 16/14/8 
f 49/53/43 76/91/78 50/54/44 
f 51/55/45 67/75/64 19/19/13 
f 52/56/46 39/42/33 2/2/2 
f 53/57/47 51/55/45 20/20/14 
f 54/58/48 69/78/67 55/59/49 
f 56/60/50 77/94/81 22/24/18 
f 57/61/51 71/80/69 58/62/52 
f 59/63/53 78/96/83 34/36/27 
f 60/64/54 46/50/40 17/15/9 
f 61/65/55 59/63/53 35/37/28 
f 62/66/56 80/99/86 63/67/57 
f 64/68/58 72/83/72 38/41/32 
f 28/69/59 11/76/65 53/57/47 
s off
f 65/70/121 68/123/121 54/71/121 
f 66/72/122 70/124/122 57/47/122 
s 1
f 31/73/62 30/82/71 64/68/58 
f 10/74/63 84/117/101 67/75/64 
f 11/76/65 10/74/63 51/55/45 
f 68/77/66 29/105/91 69/78/67 
f 70/79/68 32/119/103 71/80/69 
f 12/81/70 31/73/62 46/50/40 
f 30/82/71 82/106/92 72/83/72 
f 26/84/73 25/93/80 56/60/50 
s off
f 73/85/123 79/125/123 62/86/123 
f 74/87/124 75/87/124 49/88/124 
s 1
f 23/89/76 5/97/84 61/65/55 
f 75/90/77 27/120/104 76/91/78 
f 6/92/79 26/84/73 39/42/33 
f 25/93/80 81/108/94 77/94/81 
f 4/95/82 83/121/105 78/96/83 
f 5/97/84 4/95/82 59/63/53 
f 79/98/85 24/110/96 80/99/86 
f 3/3/3 40/43/34 22/24/18 
s off
f 79/100/125 73/100/125 81/101/125 
f 68/102/126 65/102/126 82/30/126 
s 1
f 18/16/10 47/51/41 38/41/32 
f 41/44/35 3/3/3 55/59/49 
f 42/103/89 8/22/16 22/24/18 
f 48/52/42 18/16/10 63/67/57 
f 43/104/90 9/39/30 38/41/32 
f 28/69/59 41/44/35 69/78/67 
f 65/107/93 43/104/90 72/83/72 
f 73/109/95 42/103/89 77/94/81 
f 23/89/76 48/52/42 80/99/86 
f 21/21/15 20/20/14 19/19/13 
s off
f 75/111/127 74/111/127 83/112/127 
f 70/113/128 66/126/128 84/114/128 
s 1
f 36/38/29 35/37/28 34/36/27 
f 52/56/46 21/21/15 50/54/44 
f 44/115/99 14/17/11 19/19/13 
f 60/64/54 36/38/29 58/62/52 
f 45/116/100 15/34/25 34/36/27 
f 66/118/102 44/115/99 67/75/64 
f 12/81/70 60/64/54 71/80/69 
f 6/92/79 52/56/46 76/91/78 
f 74/122/106 45/116/100 78/96/83 
# 164 faces

