# 3ds Max Wavefront OBJ Exporter v0.97b - (c)2007 guruware
# File Created: 18.10.2016 17:56:38

mtllib Paper_E.mtl

#
# object Paper_E
#

v  3.7563 -2.8102 55.8610
v  3.7563 -2.4058 49.7961
v  -8.5985 -2.8102 55.8610
v  -8.5985 -2.8130 43.7317
v  -8.5985 -2.4085 49.7961
v  -8.5985 -2.8103 43.7313
v  3.7563 -3.2688 58.6198
v  3.7563 -3.2662 58.6203
v  -8.5985 -3.2662 58.6203
v  3.7563 -2.8103 43.7313
v  3.7563 -2.8131 43.7317
v  -8.5985 -3.2692 40.9725
v  -8.5985 -3.2664 40.9720
v  3.7563 -3.2664 40.9720
v  -8.5985 -2.8128 55.8606
v  3.7563 -2.8128 55.8606
v  -8.5985 -2.4058 49.7961
v  -8.5985 -3.2688 58.6198
v  3.7563 -2.4085 49.7961
v  3.7563 -3.2692 40.9725
# 20 vertices

vn 0.0000 0.9934 0.1149
vn 0.0000 1.0000 -0.0000
vn -1.0000 0.0000 -0.0000
vn -0.0000 -0.1913 0.9815
vn 1.0000 -0.0000 -0.0000
vn -0.0000 -0.1952 -0.9808
vn -0.0000 -0.9934 -0.1149
vn -0.0000 -1.0000 0.0000
vn 0.0000 0.9934 -0.1150
vn 0.0000 0.9866 -0.1631
vn 0.0000 0.9866 0.1631
vn -0.0000 -0.9934 0.1150
vn -0.0000 -0.9866 0.1631
vn -0.0000 -0.9866 -0.1631
vn 0.0000 -0.1891 0.9820
vn -0.0000 -0.1914 -0.9815
# 16 vertex normals

vt 0.0135 0.7663 0.0000
vt 0.0135 0.7110 0.0000
vt 0.1258 0.7663 0.0000
vt 0.6966 0.0103 0.0000
vt 0.8154 0.0107 0.0000
vt 0.6966 0.0104 0.0000
vt 0.6955 0.0092 0.0000
vt 0.6955 0.0091 0.0000
vt 0.9367 0.0124 0.0000
vt 0.7016 0.0114 0.0000
vt 0.8204 0.0114 0.0000
vt 0.7491 0.0103 0.0000
vt 0.9903 0.0108 0.0000
vt 0.1339 0.7636 0.0000
vt 0.1339 0.7091 0.0000
vt 0.2446 0.7636 0.0000
vt 0.0135 0.6557 0.0000
vt 0.0135 0.6302 0.0000
vt 0.1258 0.6557 0.0000
vt 0.1258 0.7110 0.0000
vt 0.1258 0.7917 0.0000
vt 0.9341 0.0111 0.0000
vt 0.9887 0.0113 0.0000
vt 0.8154 0.0108 0.0000
vt 0.6420 0.0102 0.0000
vt 0.9391 0.0115 0.0000
vt 0.9938 0.0115 0.0000
vt 0.8204 0.0115 0.0000
vt 0.6470 0.0114 0.0000
vt 0.1339 0.6546 0.0000
vt 0.1339 0.6296 0.0000
vt 0.2446 0.6546 0.0000
vt 0.2446 0.7091 0.0000
vt 0.2446 0.7887 0.0000
vt 0.9367 0.0125 0.0000
vt 0.9903 0.0109 0.0000
vt 0.1258 0.6302 0.0000
vt 0.0135 0.7917 0.0000
vt 0.6470 0.0113 0.0000
vt 0.2446 0.6296 0.0000
vt 0.1339 0.7887 0.0000
# 41 texture coords

g Paper_E
usemtl paper_debris_material
s 1
f 1/1/1 2/2/2 3/3/1 
s off
f 4/4/3 5/5/3 6/6/3 
f 7/7/4 8/8/4 9/9/4 
f 10/10/5 2/11/5 11/10/5 
f 12/12/6 13/12/6 14/13/6 
s 1
f 15/14/7 5/15/8 16/16/7 
f 10/17/9 14/18/10 6/19/9 
f 2/2/2 10/17/9 17/20/2 
f 3/3/1 9/21/11 1/1/1 
s off
f 15/22/3 18/23/3 3/22/3 
f 5/5/3 15/22/3 17/24/3 
f 6/6/3 13/25/3 4/4/3 
f 1/26/5 8/27/5 16/26/5 
f 2/11/5 1/26/5 19/28/5 
f 11/10/5 20/29/5 10/10/5 
s 1
f 4/30/12 12/31/13 11/32/12 
f 5/15/8 4/30/12 19/33/8 
f 16/16/7 7/34/14 15/14/7 
f 2/2/2 17/20/2 3/3/1 
s off
f 5/5/3 17/24/3 6/6/3 
f 9/9/15 18/35/15 7/7/15 
f 2/11/5 19/28/5 11/10/5 
f 14/13/16 20/36/16 12/12/16 
s 1
f 5/15/8 19/33/8 16/16/7 
f 14/18/10 13/37/10 6/19/9 
f 10/17/9 6/19/9 17/20/2 
f 9/21/11 8/38/11 1/1/1 
s off
f 18/23/3 9/23/3 3/22/3 
f 15/22/3 3/22/3 17/24/3 
f 13/25/3 12/25/3 4/4/3 
f 8/27/5 7/27/5 16/26/5 
f 1/26/5 16/26/5 19/28/5 
f 20/29/5 14/39/5 10/10/5 
s 1
f 12/31/13 20/40/13 11/32/12 
f 4/30/12 11/32/12 19/33/8 
f 7/34/14 18/41/14 15/14/7 
# 36 faces

