# 3ds Max Wavefront OBJ Exporter v0.97b - (c)2007 guruware
# File Created: 18.10.2016 17:58:03

mtllib Paper_N.mtl

#
# object Paper_N
#

v  -10.9463 -0.1599 26.6345
v  -10.9463 -2.0369 25.8041
v  -23.3010 -0.1599 26.6345
v  -23.3010 -0.1602 19.6127
v  -23.3010 -2.0387 20.4438
v  -23.3010 -0.1599 19.6154
v  -10.9463 3.1270 25.2131
v  -10.9463 3.1249 25.2116
v  -23.3010 3.1249 25.2116
v  -10.9463 -0.1599 19.6154
v  -10.9463 -2.0369 20.4458
v  -10.9463 -0.1602 19.6127
v  -23.3010 3.1274 21.0366
v  -23.3010 3.1251 21.0383
v  -10.9463 3.1251 21.0383
v  -23.3010 -0.1602 26.6371
v  -23.3010 -2.0386 25.8061
v  -10.9463 -0.1602 26.6371
v  -10.9463 0.7947 19.6282
v  -23.3010 0.7947 19.6282
v  -10.9463 -3.1364 22.1790
v  -23.3010 -3.1364 22.1790
v  -23.3010 0.7947 26.6217
v  -10.9463 0.7947 26.6217
v  -23.3010 0.7951 26.6243
v  -23.3010 3.1270 25.2131
v  -23.3010 -3.1390 24.0717
v  -23.3010 -3.1364 24.0710
v  -23.3010 0.7951 19.6254
v  -10.9463 0.7951 26.6243
v  -10.9463 -3.1364 24.0710
v  -10.9463 -3.1390 24.0717
v  -10.9463 0.7952 19.6254
v  -10.9463 3.1274 21.0367
v  -23.3010 -3.1390 22.1783
v  -10.9463 -3.1390 22.1783
v  -10.9463 -3.2653 23.1250
v  -23.3010 -2.0369 25.8041
v  -23.3010 -3.2680 23.1250
v  -23.3010 -2.0369 20.4458
v  -10.9463 -2.0387 20.4438
v  -10.9463 -2.0386 25.8061
v  -23.3010 -3.2653 23.1250
v  -10.9463 -3.2680 23.1250
v  -11.5925 0.2952 24.6800
v  -11.5925 -1.5912 24.5114
v  -23.9472 0.2952 24.6800
v  -23.9472 -0.0283 21.3679
v  -23.9472 -1.7964 21.2715
v  -23.9472 -0.0304 21.3698
v  -11.5925 -0.1428 21.4190
v  -11.5925 -0.1442 21.4212
v  -23.9472 -0.1442 21.4212
v  -11.5925 -0.0304 21.3698
v  -11.5925 -1.7960 21.2742
v  -11.5925 -0.0283 21.3679
v  -23.9472 0.7343 24.5782
v  -23.9472 0.7328 24.5758
v  -11.5925 0.7328 24.5758
v  -23.9472 0.2972 24.6818
v  -23.9472 -1.5916 24.5141
v  -11.5925 0.2972 24.6818
v  -11.5925 0.9298 23.1223
v  -23.9472 0.9298 23.1223
v  -11.5925 -3.1513 22.4012
v  -23.9472 -3.1513 22.4012
v  -23.9472 0.7671 23.8563
v  -11.5925 0.7671 23.8563
v  -23.9472 0.7697 23.8570
v  -23.9472 -0.1428 21.4190
v  -23.9472 -2.5828 24.2824
v  -23.9472 -2.5804 24.2812
v  -23.9472 0.9324 23.1215
v  -11.5925 0.7697 23.8570
v  -11.5925 -2.5804 24.2812
v  -11.5925 -2.5828 24.2823
v  -11.5925 0.9324 23.1215
v  -11.5925 0.7343 24.5782
v  -23.9472 -3.1538 22.4000
v  -11.5925 -3.1538 22.4000
v  -11.5925 -3.1050 23.4957
v  -23.9472 -1.5912 24.5114
v  -23.9472 -3.1077 23.4957
v  -23.9472 -1.7960 21.2742
v  -11.5925 -1.7964 21.2715
v  -11.5925 -1.5916 24.5141
v  -23.9472 -3.1050 23.4957
v  -11.5925 -3.1077 23.4957
v  -11.0446 0.0938 22.4648
v  -11.0446 -0.5092 24.2308
v  -24.4760 0.0938 22.4648
v  -23.9794 -0.2326 22.0438
v  -24.2726 -1.7221 21.6284
v  -23.9794 -0.2347 22.0453
v  -11.0446 -2.5472 22.1557
v  -11.0446 -2.5453 22.1573
v  -24.4760 -2.5453 22.1573
v  -10.6722 -0.2347 22.0453
v  -10.8412 -1.7215 21.6309
v  -10.6722 -0.2326 22.0438
v  -24.0823 -1.6895 24.1738
v  -24.0823 -1.6895 24.1711
v  -10.6509 -1.6895 24.1711
v  -24.4760 0.0962 22.4641
v  -24.4760 -0.5077 24.2328
v  -11.0446 0.0962 22.4641
v  -10.6357 -0.2269 23.0644
v  -24.2999 -0.2269 23.0644
v  -10.9910 -3.1069 22.7149
v  -24.4760 -3.1069 22.7149
v  -24.4760 -0.4716 21.6441
v  -24.4760 -1.7190 21.5202
v  -11.0446 -0.4716 21.6441
v  -24.4760 -0.4700 21.6422
v  -24.4760 -1.7191 21.5185
v  -24.4760 -2.3759 24.2876
v  -24.4760 -2.3745 24.2855
v  -24.2999 -0.2243 23.0643
v  -11.0446 -1.7190 21.5202
v  -11.0446 -0.4700 21.6422
v  -11.0446 -2.3745 24.2855
v  -11.0446 -2.3759 24.2876
v  -10.6357 -0.2243 23.0643
v  -10.6509 -1.6896 24.1738
v  -24.4760 -3.1095 22.7146
v  -10.9910 -3.1095 22.7146
v  -11.0446 -1.7191 21.5185
v  -10.9910 -2.9655 23.6050
v  -24.4760 -0.5092 24.2308
v  -24.4760 -2.9678 23.6061
v  -24.2726 -1.7215 21.6309
v  -10.8412 -1.7221 21.6284
v  -11.0446 -0.5077 24.2328
v  -24.4760 -2.9655 23.6050
v  -10.9910 -2.9678 23.6061
v  -24.4760 -2.5472 22.1557
# 136 vertices

vn 0.0000 0.2002 -0.9798
vn 0.0000 0.6526 -0.7577
vn -1.0000 0.0000 -0.0000
vn 0.0000 0.5881 -0.8088
vn 1.0000 -0.0000 -0.0000
vn -0.0000 0.5921 0.8059
vn -0.0000 -0.2002 0.9798
vn -0.0000 -0.6526 0.7577
vn 0.0000 -0.2752 0.9614
vn 0.0000 -0.5177 0.8556
vn -0.0000 -0.2752 0.9614
vn 0.0000 0.9392 0.3432
vn 0.0000 0.6526 0.7577
vn 0.0000 0.9393 0.3432
vn -0.0000 -0.2752 -0.9614
vn -0.0000 -0.5177 -0.8555
vn -0.0000 0.2752 -0.9614
vn -0.0000 0.5177 -0.8556
vn 0.0000 0.2752 -0.9614
vn -0.0000 -0.9393 -0.3432
vn -0.0000 -0.6526 -0.7577
vn 0.0000 0.2752 0.9614
vn 0.0000 0.5177 0.8555
vn -0.0000 0.2752 0.9614
vn 0.0000 0.9392 -0.3433
vn 0.0000 1.0000 -0.0000
vn -0.0000 -0.9392 0.3433
vn -0.0000 -1.0000 0.0000
vn 0.0000 0.2002 0.9798
vn -0.0000 0.2002 0.9798
vn -0.0000 -0.2002 -0.9797
vn 0.0000 -0.2002 -0.9797
vn 0.0000 -0.6526 -0.7577
vn 0.0000 0.5865 -0.8099
vn -0.0000 0.5891 0.8081
vn -0.0000 -0.5177 0.8556
vn 0.0000 0.5177 -0.8556
vn -0.0000 0.5177 0.8555
vn 0.0000 -0.4624 -0.8867
vn 0.0000 0.1583 -0.9874
vn -0.0000 -0.4624 -0.8867
vn -0.0000 -0.8492 -0.5281
vn -0.0000 -0.8467 0.5320
vn -0.0000 0.4627 0.8865
vn -0.0000 -0.1584 0.9874
vn 0.0000 0.4627 0.8865
vn -0.0000 -0.9833 0.1822
vn -0.0000 -0.9909 -0.1343
vn 0.0000 0.9141 0.4054
vn 0.0000 0.3144 0.9493
vn -0.0000 -0.9967 -0.0810
vn -0.0000 -0.9366 0.3505
vn -0.0000 0.9833 -0.1820
vn -0.0000 0.9909 0.1348
vn 0.0000 0.9833 -0.1820
vn -0.0000 -0.9141 -0.4056
vn -0.0000 -0.3141 -0.9494
vn 0.0000 -0.9141 -0.4056
vn 0.0000 0.9967 0.0809
vn 0.0000 0.9366 -0.3505
vn 0.0000 0.5690 -0.8223
vn 0.0000 0.9506 -0.3104
vn -0.0000 0.5690 -0.8223
vn -0.0000 0.1583 -0.9874
vn -0.0000 -0.5696 0.8219
vn -0.0000 -0.9507 0.3100
vn 0.0000 -0.5696 0.8219
vn 0.0000 -0.1585 0.9874
vn -0.0000 -0.5328 0.8463
vn -0.0000 0.3144 0.9493
vn -0.0000 0.5329 -0.8462
vn 0.0000 0.5329 -0.8462
vn 0.0000 -0.3141 -0.9494
vn 0.0000 -0.9507 0.3100
vn -0.0000 -0.9906 0.1367
vn -0.0000 -0.5936 -0.8047
vn -0.9706 0.1356 0.1988
vn -0.0000 -0.6261 0.7798
vn 0.9898 -0.0797 -0.1177
vn -0.0000 -0.9999 -0.0163
vn -0.0000 0.9906 -0.1367
vn -0.0000 0.5936 0.8047
vn 0.0000 0.9906 -0.1367
vn 0.0000 -0.8951 -0.4459
vn 0.0000 -0.6034 -0.7974
vn -0.0000 -0.8813 -0.4725
vn 0.0000 0.9249 0.3803
vn 0.0000 0.1643 0.9864
vn 0.0000 0.9386 0.3450
vn -0.0000 -0.5083 0.8612
vn -0.0000 0.2753 0.9614
vn -0.9791 0.0081 0.2033
vn 0.9999 0.0005 0.0144
vn -0.0000 0.8815 0.4721
vn -0.0000 0.6037 0.7972
vn 0.0000 0.8953 0.4455
vn -0.0000 -0.9386 -0.3449
vn -0.0000 -0.2434 -0.9699
vn 0.0000 -0.9249 -0.3802
vn 0.0000 0.5082 -0.8612
vn 0.0000 -0.2750 -0.9615
vn -0.0000 0.5082 -0.8612
vn 0.0000 0.4096 -0.9123
vn 0.0000 0.9086 -0.4176
vn 0.0000 0.4015 -0.9158
vn -0.9921 0.1221 -0.0298
vn -0.9352 -0.1996 -0.2926
vn 0.9957 -0.0905 0.0219
vn 0.9991 -0.0241 -0.0355
vn -0.0000 -0.4015 0.9159
vn -0.0000 -0.9063 0.4226
vn 0.0000 -0.4095 0.9123
vn 0.0000 0.5936 0.8047
vn 0.0000 -0.8152 0.5792
vn -0.0000 -0.8086 0.5884
vn -0.0000 0.2434 0.9699
vn 0.0000 0.9063 -0.4226
vn 0.9981 0.0517 0.0336
vn -0.0000 0.8085 -0.5885
vn 0.0000 0.8150 -0.5794
vn 0.0000 -0.1644 -0.9864
vn -0.0000 -0.9086 0.4176
vn 0.0000 0.6106 0.7920
vn 0.0000 0.2753 0.9614
vn -0.0000 -0.6098 -0.7925
vn -0.0000 -0.2750 -0.9615
vn 0.0000 -0.8503 -0.5263
vn -0.0000 -0.8488 0.5287
vn 0.0000 0.9909 0.1348
vn -0.0000 0.9366 -0.3505
vn -0.9771 0.2068 -0.0505
vn 0.0000 -0.6245 0.7810
vn 0.9923 -0.1207 0.0293
vn -0.0000 -0.9998 -0.0202
vn -0.0000 -0.6034 -0.7974
vn -0.9889 -0.1487 -0.0024
vn 0.9999 -0.0105 -0.0002
vn 0.0000 0.6037 0.7972
vn -0.9868 0.0191 -0.1608
vn -0.9540 -0.0120 -0.2996
vn 0.9928 -0.0143 0.1187
vn 0.9994 -0.0013 -0.0358
vn 0.9981 0.0261 0.0559
# 143 vertex normals

vt 0.0217 0.3908 0.0000
vt 0.0217 0.3718 0.0000
vt 0.1340 0.3908 0.0000
vt 0.7153 0.0104 0.0000
vt 0.7560 0.0105 0.0000
vt 0.7153 0.0105 0.0000
vt 0.6955 0.0092 0.0000
vt 0.6955 0.0091 0.0000
vt 0.9367 0.0124 0.0000
vt 0.7203 0.0114 0.0000
vt 0.7610 0.0114 0.0000
vt 0.7491 0.0103 0.0000
vt 0.9903 0.0108 0.0000
vt 0.1421 0.3882 0.0000
vt 0.1421 0.3695 0.0000
vt 0.2528 0.3882 0.0000
vt 0.0217 0.2889 0.0000
vt 0.0217 0.2634 0.0000
vt 0.1341 0.2889 0.0000
vt 0.0217 0.3355 0.0000
vt 0.0217 0.3165 0.0000
vt 0.1340 0.3355 0.0000
vt 0.1340 0.3995 0.0000
vt 0.1340 0.4249 0.0000
vt 0.0217 0.3995 0.0000
vt 0.9341 0.0111 0.0000
vt 0.9887 0.0113 0.0000
vt 0.8341 0.0108 0.0000
vt 0.8747 0.0109 0.0000
vt 0.6966 0.0104 0.0000
vt 0.6420 0.0102 0.0000
vt 0.6966 0.0103 0.0000
vt 0.9391 0.0115 0.0000
vt 0.9938 0.0115 0.0000
vt 0.8391 0.0114 0.0000
vt 0.8798 0.0114 0.0000
vt 0.8391 0.0115 0.0000
vt 0.7016 0.0114 0.0000
vt 0.6470 0.0114 0.0000
vt 0.1421 0.2878 0.0000
vt 0.1421 0.2627 0.0000
vt 0.2528 0.2878 0.0000
vt 0.1421 0.3337 0.0000
vt 0.1421 0.3150 0.0000
vt 0.2528 0.3337 0.0000
vt 0.2528 0.3968 0.0000
vt 0.2528 0.4218 0.0000
vt 0.1421 0.3968 0.0000
vt 0.0217 0.3529 0.0000
vt 0.0217 0.3442 0.0000
vt 0.1340 0.3529 0.0000
vt 0.1340 0.3718 0.0000
vt 0.7967 0.0107 0.0000
vt 0.8154 0.0107 0.0000
vt 0.7560 0.0106 0.0000
vt 0.8017 0.0114 0.0000
vt 0.8204 0.0114 0.0000
vt 0.8017 0.0115 0.0000
vt 0.1421 0.3509 0.0000
vt 0.1421 0.3423 0.0000
vt 0.2528 0.3509 0.0000
vt 0.2528 0.3695 0.0000
vt 0.0217 0.2976 0.0000
vt 0.1340 0.2976 0.0000
vt 0.1340 0.3165 0.0000
vt 0.1340 0.3442 0.0000
vt 0.9154 0.0110 0.0000
vt 0.9154 0.0111 0.0000
vt 0.8747 0.0110 0.0000
vt 0.8154 0.0108 0.0000
vt 0.9204 0.0115 0.0000
vt 0.8798 0.0115 0.0000
vt 0.8204 0.0115 0.0000
vt 0.1421 0.2964 0.0000
vt 0.2528 0.2964 0.0000
vt 0.2528 0.3151 0.0000
vt 0.2528 0.3423 0.0000
vt 0.9367 0.0125 0.0000
vt 0.9903 0.0109 0.0000
vt 0.1341 0.2634 0.0000
vt 0.0217 0.4249 0.0000
vt 0.6470 0.0113 0.0000
vt 0.2528 0.2627 0.0000
vt 0.1421 0.4218 0.0000
vt 0.1340 0.4122 0.0000
vt 0.9614 0.0112 0.0000
vt 0.9665 0.0115 0.0000
vt 0.2528 0.4093 0.0000
vt 0.0217 0.4122 0.0000
vt 0.1421 0.4093 0.0000
# 90 texture coords

g Paper_N
usemtl paper_debris_material
s 1
f 1/1/1 2/2/2 3/3/1 
s off
f 4/4/3 5/5/3 6/6/3 
f 7/7/4 8/8/4 9/9/4 
f 10/10/5 11/11/5 12/10/5 
f 13/12/6 14/12/6 15/13/6 
s 1
f 16/14/7 17/15/8 18/16/7 
f 19/17/9 15/18/10 20/19/11 
f 21/20/12 11/21/13 22/22/14 
f 23/23/15 9/24/16 24/25/15 
s off
f 25/26/3 26/27/3 23/26/3 
f 27/28/3 17/29/3 28/28/3 
f 20/30/3 14/31/3 29/32/3 
f 24/33/5 8/34/5 30/33/5 
f 31/35/5 2/36/5 32/37/5 
f 33/38/5 34/39/5 19/38/5 
s 1
f 29/40/17 13/41/18 33/42/19 
f 35/43/20 5/44/21 36/45/20 
f 30/46/22 7/47/23 25/48/24 
f 31/49/25 37/50/26 28/51/25 
f 2/2/2 31/49/25 38/52/2 
f 3/3/1 23/23/15 1/1/1 
s off
f 35/53/3 39/54/3 22/53/3 
f 5/5/3 35/53/3 40/55/3 
f 6/6/3 20/30/3 4/4/3 
f 21/56/5 37/57/5 36/58/5 
f 11/11/5 21/56/5 41/11/5 
f 12/10/5 33/38/5 10/10/5 
s 1
f 27/59/27 39/60/28 32/61/27 
f 17/15/8 27/59/27 42/62/8 
f 18/16/7 30/46/22 16/14/7 
f 10/63/29 19/17/9 6/64/30 
f 11/21/13 10/63/29 40/65/13 
f 22/22/14 43/66/26 21/20/12 
s off
f 16/67/3 25/26/3 3/68/3 
f 17/29/3 16/67/3 38/69/3 
f 28/28/3 43/70/3 27/28/3 
f 1/71/5 24/33/5 18/71/5 
f 2/36/5 1/71/5 42/72/5 
f 32/37/5 44/73/5 31/35/5 
s 1
f 4/74/31 29/40/17 12/75/32 
f 5/44/21 4/74/31 41/76/33 
f 36/45/20 44/77/28 35/43/20 
f 2/2/2 38/52/2 3/3/1 
s off
f 5/5/3 40/55/3 6/6/3 
f 9/9/34 26/78/34 7/7/34 
f 11/11/5 41/11/5 12/10/5 
f 15/13/35 34/79/35 13/12/35 
s 1
f 17/15/8 42/62/8 18/16/7 
f 15/18/10 14/80/36 20/19/11 
f 11/21/13 40/65/13 22/22/14 
f 9/24/16 8/81/16 24/25/15 
s off
f 26/27/3 9/27/3 23/26/3 
f 17/29/3 38/69/3 28/28/3 
f 14/31/3 13/31/3 29/32/3 
f 8/34/5 7/34/5 30/33/5 
f 2/36/5 42/72/5 32/37/5 
f 34/39/5 15/82/5 19/38/5 
s 1
f 13/41/18 34/83/37 33/42/19 
f 5/44/21 41/76/33 36/45/20 
f 7/47/23 26/84/38 25/48/24 
f 37/50/26 43/66/26 28/51/25 
f 31/49/25 28/51/25 38/52/2 
f 23/23/15 24/25/15 1/1/1 
s off
f 39/54/3 43/70/3 22/53/3 
f 35/53/3 22/53/3 40/55/3 
f 20/30/3 29/32/3 4/4/3 
f 37/57/5 44/73/5 36/58/5 
f 21/56/5 36/58/5 41/11/5 
f 33/38/5 19/38/5 10/10/5 
s 1
f 39/60/28 44/77/28 32/61/27 
f 27/59/27 32/61/27 42/62/8 
f 30/46/22 25/48/24 16/14/7 
f 19/17/9 20/19/11 6/64/30 
f 10/63/29 6/64/30 40/65/13 
f 43/66/26 37/50/26 21/20/12 
s off
f 25/26/3 23/26/3 3/68/3 
f 16/67/3 3/68/3 38/69/3 
f 43/70/3 39/54/3 27/28/3 
f 24/33/5 30/33/5 18/71/5 
f 1/71/5 18/71/5 42/72/5 
f 44/73/5 37/57/5 31/35/5 
s 1
f 29/40/17 33/42/19 12/75/32 
f 4/74/31 12/75/32 41/76/33 
f 44/77/28 39/60/28 35/43/20 
f 45/1/39 46/2/40 47/3/41 
s off
f 48/4/3 49/5/3 50/6/3 
f 51/7/42 52/8/42 53/9/42 
f 54/10/5 55/11/5 56/10/5 
f 57/12/43 58/12/43 59/13/43 
s 1
f 60/14/44 61/15/45 62/16/46 
f 63/17/47 59/18/48 64/19/47 
f 65/20/49 55/21/50 66/22/49 
f 67/23/51 53/24/52 68/25/51 
s off
f 69/26/3 70/27/3 67/26/3 
f 71/28/3 61/29/3 72/28/3 
f 64/30/3 58/31/3 73/32/3 
f 68/33/5 52/34/5 74/33/5 
f 75/35/5 46/36/5 76/37/5 
f 77/38/5 78/39/5 63/38/5 
s 1
f 73/40/53 57/41/54 77/42/55 
f 79/43/56 49/44/57 80/45/58 
f 74/46/59 51/47/60 69/48/59 
f 75/49/61 81/50/62 72/51/63 
f 46/2/40 75/49/61 82/52/64 
f 47/3/41 67/23/51 45/1/39 
s off
f 79/53/3 83/54/3 66/53/3 
f 49/5/3 79/53/3 84/55/3 
f 50/6/3 64/30/3 48/4/3 
f 65/56/5 81/57/5 80/58/5 
f 55/11/5 65/56/5 85/11/5 
f 56/10/5 77/38/5 54/10/5 
s 1
f 71/59/65 83/60/66 76/61/67 
f 61/15/45 71/59/65 86/62/68 
f 62/16/46 74/46/59 60/14/44 
f 54/63/69 63/17/47 50/64/69 
f 55/21/50 54/63/69 84/65/70 
f 66/22/49 87/66/62 65/20/49 
s off
f 60/67/3 69/26/3 47/68/3 
f 61/29/3 60/67/3 82/69/3 
f 72/28/3 87/70/3 71/28/3 
f 45/71/5 68/33/5 62/71/5 
f 46/36/5 45/71/5 86/72/5 
f 76/37/5 88/73/5 75/35/5 
s 1
f 48/74/71 73/40/53 56/75/72 
f 49/44/57 48/74/71 85/76/73 
f 80/45/58 88/77/74 79/43/56 
f 89/1/75 90/2/76 91/3/75 
s off
f 92/4/77 93/5/77 94/6/77 
f 95/7/78 96/8/78 97/9/78 
f 98/10/79 99/11/79 100/10/79 
f 101/12/80 102/12/80 103/13/80 
s 1
f 104/14/81 105/15/82 106/16/83 
f 107/17/84 103/18/85 108/19/86 
f 109/20/87 99/21/88 110/22/89 
f 111/23/90 112/85/91 113/25/90 
s off
f 114/26/3 115/86/3 111/26/3 
f 116/28/3 105/29/3 117/28/3 
f 108/30/92 102/31/92 118/32/92 
f 113/33/5 119/87/5 120/33/5 
f 121/35/5 90/36/5 122/37/5 
f 123/38/93 124/39/93 107/38/93 
s 1
f 118/40/94 101/41/95 123/42/96 
f 125/43/97 93/44/98 126/45/99 
f 120/46/100 127/88/101 114/48/102 
f 121/49/103 128/50/104 117/51/105 
f 90/2/76 121/49/103 129/52/76 
f 91/3/75 111/23/90 89/1/75 
s off
f 125/53/3 130/54/3 110/53/3 
f 93/5/106 125/53/106 131/55/106 
f 94/6/107 108/30/107 92/4/107 
f 109/56/5 128/57/5 126/58/5 
f 99/11/108 109/56/108 132/11/108 
f 100/10/109 123/38/109 98/10/109 
s 1
f 116/59/110 130/60/111 122/61/112 
f 105/15/82 116/59/110 133/62/113 
f 106/16/83 120/46/100 104/14/81 
f 98/63/114 107/17/84 94/64/115 
f 99/21/88 98/63/114 131/65/116 
f 110/22/89 134/66/117 109/20/87 
s off
f 104/67/3 114/26/3 91/68/3 
f 105/29/3 104/67/3 129/69/3 
f 117/28/3 134/70/3 116/28/3 
f 89/71/5 113/33/5 106/71/5 
f 90/36/5 89/71/5 133/72/5 
f 122/37/118 135/73/118 121/35/118 
s 1
f 92/74/119 118/40/94 100/75/120 
f 93/44/98 92/74/119 132/76/121 
f 126/45/99 135/77/122 125/43/97 
f 112/85/91 97/24/123 119/89/124 
s off
f 115/86/3 136/27/3 112/86/3 
f 119/87/5 96/34/5 127/87/5 
s 1
f 127/88/101 95/47/125 115/90/126 
f 46/2/40 82/52/64 47/3/41 
s off
f 49/5/3 84/55/3 50/6/3 
f 53/9/127 70/78/127 51/7/127 
f 55/11/5 85/11/5 56/10/5 
f 59/13/128 78/79/128 57/12/128 
s 1
f 61/15/45 86/62/68 62/16/46 
f 59/18/48 58/80/48 64/19/47 
f 55/21/50 84/65/70 66/22/49 
f 53/24/52 52/81/52 68/25/51 
s off
f 70/27/3 53/27/3 67/26/3 
f 61/29/3 82/69/3 72/28/3 
f 58/31/3 57/31/3 73/32/3 
f 52/34/5 51/34/5 74/33/5 
f 46/36/5 86/72/5 76/37/5 
f 78/39/5 59/82/5 63/38/5 
s 1
f 57/41/54 78/83/129 77/42/55 
f 49/44/57 85/76/73 80/45/58 
f 51/47/60 70/84/130 69/48/59 
f 81/50/62 87/66/62 72/51/63 
f 75/49/61 72/51/63 82/52/64 
f 67/23/51 68/25/51 45/1/39 
s off
f 83/54/3 87/70/3 66/53/3 
f 79/53/3 66/53/3 84/55/3 
f 64/30/3 73/32/3 48/4/3 
f 81/57/5 88/73/5 80/58/5 
f 65/56/5 80/58/5 85/11/5 
f 77/38/5 63/38/5 54/10/5 
s 1
f 83/60/66 88/77/74 76/61/67 
f 71/59/65 76/61/67 86/62/68 
f 74/46/59 69/48/59 60/14/44 
f 63/17/47 64/19/47 50/64/69 
f 54/63/69 50/64/69 84/65/70 
f 87/66/62 81/50/62 65/20/49 
s off
f 69/26/3 67/26/3 47/68/3 
f 60/67/3 47/68/3 82/69/3 
f 87/70/3 83/54/3 71/28/3 
f 68/33/5 74/33/5 62/71/5 
f 45/71/5 62/71/5 86/72/5 
f 88/73/5 81/57/5 75/35/5 
s 1
f 73/40/53 77/42/55 56/75/72 
f 48/74/71 56/75/72 85/76/73 
f 88/77/74 83/60/66 79/43/56 
f 90/2/76 129/52/76 91/3/75 
s off
f 93/5/131 131/55/131 94/6/131 
f 97/9/132 136/78/132 95/7/132 
f 99/11/133 132/11/133 100/10/133 
f 103/13/134 124/79/134 101/12/134 
s 1
f 105/15/82 133/62/113 106/16/83 
f 103/18/85 102/80/135 108/19/86 
f 99/21/88 131/65/116 110/22/89 
f 112/85/91 119/89/124 113/25/90 
s off
f 115/86/3 112/86/3 111/26/3 
f 105/29/3 129/69/3 117/28/3 
f 102/31/136 101/31/136 118/32/136 
f 119/87/5 127/87/5 120/33/5 
f 90/36/5 133/72/5 122/37/5 
f 124/39/137 103/82/137 107/38/137 
s 1
f 101/41/95 124/83/138 123/42/96 
f 93/44/98 132/76/121 126/45/99 
f 127/88/101 115/90/126 114/48/102 
f 128/50/104 134/66/117 117/51/105 
f 121/49/103 117/51/105 129/52/76 
f 111/23/90 113/25/90 89/1/75 
s off
f 130/54/3 134/70/3 110/53/3 
f 125/53/139 110/53/139 131/55/139 
f 108/30/140 118/32/140 92/4/140 
f 128/57/5 135/73/5 126/58/5 
f 109/56/141 126/58/141 132/11/141 
f 123/38/142 107/38/142 98/10/142 
s 1
f 130/60/111 135/77/122 122/61/112 
f 116/59/110 122/61/112 133/62/113 
f 120/46/100 114/48/102 104/14/81 
f 107/17/84 108/19/86 94/64/115 
f 98/63/114 94/64/115 131/65/116 
f 134/66/117 128/50/104 109/20/87 
s off
f 114/26/3 111/26/3 91/68/3 
f 104/67/3 91/68/3 129/69/3 
f 134/70/3 130/54/3 116/28/3 
f 113/33/5 120/33/5 106/71/5 
f 89/71/5 106/71/5 133/72/5 
f 135/73/143 128/57/143 121/35/143 
s 1
f 118/40/94 123/42/96 100/75/120 
f 92/74/119 100/75/120 132/76/121 
f 135/77/122 130/60/111 125/43/97 
f 97/24/123 96/81/123 119/89/124 
s off
f 136/27/3 97/27/3 112/86/3 
f 96/34/5 95/34/5 127/87/5 
s 1
f 95/47/125 136/84/125 115/90/126 
# 260 faces

