# 3ds Max Wavefront OBJ Exporter v0.97b - (c)2007 guruware
# File Created: 18.10.2016 17:56:19

mtllib Paper_C.mtl

#
# object Paper_C
#

v  31.7678 -2.3437 55.7898
v  27.6263 -2.6618 55.7898
v  31.7389 -1.6159 56.9785
v  23.4604 -2.4447 40.9164
v  23.4603 -2.4475 40.9164
v  23.4605 -2.4445 53.0816
v  31.7004 -0.6449 57.9765
v  27.6451 -0.9564 57.9765
v  31.7005 -0.6465 57.9785
v  35.9186 -1.4905 40.9164
v  35.9183 -1.4878 40.9164
v  35.9185 -1.4902 53.0816
v  27.6197 -3.2603 40.9164
v  31.7914 -2.9399 40.9164
v  27.6196 -3.2631 40.9164
v  27.6262 -2.6642 55.7909
v  31.7679 -2.3461 55.7909
v  27.6343 -1.9333 56.9801
v  31.7914 -2.9397 53.0816
v  23.4694 -2.3006 54.4697
v  23.4970 -1.8545 55.7909
v  23.4695 -2.2981 54.4691
v  35.9051 -1.3429 54.4691
v  35.8648 -0.9022 55.7898
v  35.9053 -1.3454 54.4697
v  31.7915 -2.9427 40.9164
v  27.6196 -3.2628 53.0816
v  27.6197 -3.2601 53.0816
v  31.7856 -2.7923 54.4691
v  27.6213 -3.1122 54.4691
v  27.6343 -1.9312 56.9785
v  31.7915 -2.9423 53.0816
v  27.6213 -3.1148 54.4697
v  31.7857 -2.7949 54.4697
v  27.6451 -0.9580 57.9785
v  31.7390 -1.6180 56.9801
v  23.5419 -1.1308 56.9801
v  23.6018 -0.1651 57.9785
v  23.5420 -1.1287 56.9785
v  23.4972 -1.8521 55.7898
v  35.7994 -0.1872 56.9785
v  35.7122 0.7667 57.9765
v  35.7996 -0.1892 56.9801
v  35.8650 -0.9045 55.7909
v  23.6019 -0.1635 57.9765
v  35.7124 0.7651 57.9785
v  35.9183 -1.4876 53.0816
v  23.4603 -2.4471 53.0816
# 48 vertices

vn -0.1867 0.8897 -0.4167
vn 0.0528 0.9051 -0.4219
vn -0.1646 0.7797 -0.6042
vn -0.9981 0.0617 0.0000
vn -0.0595 0.7746 0.6297
vn 0.9959 0.0910 0.0000
vn 0.0000 -0.0006 -1.0000
vn -0.0528 -0.9051 0.4219
vn 0.1867 -0.8897 0.4167
vn -0.0465 -0.7910 0.6100
vn -0.2060 0.9786 -0.0000
vn 0.0585 0.9983 -0.0000
vn -0.2050 0.9774 -0.0520
vn -0.9981 0.0618 0.0000
vn 0.9959 0.0909 0.0000
vn -0.0585 -0.9983 0.0000
vn 0.2060 -0.9786 0.0000
vn -0.0582 -0.9969 0.0528
vn 0.0582 0.9969 -0.0528
vn -0.2002 0.9569 -0.2105
vn 0.0567 0.9753 -0.2135
vn 0.0441 0.7144 -0.6983
vn -0.1562 0.7049 -0.6919
vn 0.0465 0.7910 -0.6100
vn 0.2050 -0.9774 0.0520
vn -0.0567 -0.9753 0.2135
vn 0.2002 -0.9569 0.2105
vn 0.1562 -0.7049 0.6919
vn -0.0441 -0.7144 0.6983
vn 0.1646 -0.7796 0.6042
vn -0.9981 0.0616 0.0002
vn -0.9980 0.0638 -0.0012
vn 0.9958 0.0912 -0.0001
vn 0.9957 0.0926 -0.0010
vn 0.1743 0.8889 -0.4237
vn -0.2642 0.7510 -0.6051
vn 0.1504 0.7671 0.6236
vn -0.2623 0.7455 0.6128
vn -0.0002 0.0006 -1.0000
vn -0.0001 -0.0006 -1.0000
vn 0.3018 -0.8579 0.4159
vn -0.1520 -0.7751 0.6132
vn 0.1924 0.9813 -0.0000
vn -0.3315 0.9421 -0.0510
vn 0.3319 -0.9433 0.0000
vn -0.1922 -0.9800 0.0524
vn 0.1922 0.9800 -0.0524
vn -0.3245 0.9224 -0.2096
vn 0.1880 0.9585 -0.2143
vn -0.3018 0.8579 -0.4159
vn -0.2430 0.6906 -0.6813
vn 0.1520 0.7752 -0.6132
vn 0.3315 -0.9421 0.0510
vn -0.1880 -0.9585 0.2143
vn 0.3245 -0.9224 0.2096
vn -0.1743 -0.8889 0.4237
vn -0.1388 -0.7077 0.6928
vn 0.2642 -0.7510 0.6051
vn -0.9981 0.0624 -0.0000
vn -0.0595 0.7752 0.6289
vn 0.9959 0.0908 0.0000
vn -0.0000 0.0006 -1.0000
vn -0.9979 0.0640 -0.0007
vn 0.9957 0.0928 -0.0006
vn -0.9981 0.0614 0.0004
vn -0.9980 0.0624 -0.0001
vn 0.9959 0.0905 0.0005
vn 0.1504 0.7672 0.6235
vn -0.2622 0.7451 0.6132
vn -0.0006 0.0017 -1.0000
vn -0.0003 -0.0018 -1.0000
vn -0.3319 0.9433 -0.0000
vn -0.1924 -0.9813 0.0000
vn 0.1388 0.7077 -0.6927
vn 0.2430 -0.6905 0.6813
# 75 vertex normals

vt 0.5448 0.9600 0.0000
vt 0.5823 0.9600 0.0000
vt 0.5448 0.9727 0.0000
vt 0.6420 0.0102 0.0000
vt 0.8795 0.0110 0.0000
vt 0.7759 0.0102 0.0000
vt 0.8563 0.0113 0.0000
vt 0.7759 0.0103 0.0000
vt 0.6470 0.0114 0.0000
vt 0.6470 0.0113 0.0000
vt 0.8845 0.0115 0.0000
vt 0.8295 0.0105 0.0000
vt 0.9099 0.0106 0.0000
vt 0.6647 0.9573 0.0000
vt 0.7016 0.9573 0.0000
vt 0.6647 0.9699 0.0000
vt 0.5448 0.8240 0.0000
vt 0.5823 0.8240 0.0000
vt 0.5448 0.9346 0.0000
vt 0.9068 0.0110 0.0000
vt 0.9341 0.0111 0.0000
vt 0.9068 0.0111 0.0000
vt 0.9118 0.0114 0.0000
vt 0.9391 0.0115 0.0000
vt 0.9118 0.0115 0.0000
vt 0.6647 0.8233 0.0000
vt 0.7016 0.8233 0.0000
vt 0.6647 0.9323 0.0000
vt 0.5823 0.9346 0.0000
vt 0.5448 0.9473 0.0000
vt 0.5823 0.9473 0.0000
vt 0.5823 0.9855 0.0000
vt 0.5448 0.9854 0.0000
vt 0.5823 0.9727 0.0000
vt 0.7016 0.9323 0.0000
vt 0.6647 0.9448 0.0000
vt 0.7016 0.9448 0.0000
vt 0.7016 0.9824 0.0000
vt 0.6647 0.9824 0.0000
vt 0.7016 0.9699 0.0000
vt 0.9614 0.0112 0.0000
vt 0.9887 0.0113 0.0000
vt 0.9665 0.0115 0.0000
vt 0.9938 0.0115 0.0000
vt 0.6197 0.9600 0.0000
vt 0.5074 0.9727 0.0000
vt 0.9367 0.0124 0.0000
vt 0.8563 0.0114 0.0000
vt 0.6955 0.0092 0.0000
vt 0.9903 0.0108 0.0000
vt 0.9099 0.0107 0.0000
vt 0.7491 0.0103 0.0000
vt 0.7385 0.9573 0.0000
vt 0.6278 0.9698 0.0000
vt 0.6197 0.8240 0.0000
vt 0.5074 0.9346 0.0000
vt 0.7385 0.8233 0.0000
vt 0.6278 0.9323 0.0000
vt 0.6197 0.9346 0.0000
vt 0.5074 0.9473 0.0000
vt 0.6197 0.9473 0.0000
vt 0.5074 0.9600 0.0000
vt 0.5074 0.9854 0.0000
vt 0.6197 0.9727 0.0000
vt 0.7385 0.9323 0.0000
vt 0.6278 0.9448 0.0000
vt 0.7385 0.9448 0.0000
vt 0.6278 0.9573 0.0000
vt 0.6278 0.9824 0.0000
vt 0.7385 0.9699 0.0000
vt 0.8795 0.0109 0.0000
vt 0.8845 0.0114 0.0000
vt 0.9367 0.0125 0.0000
vt 0.6955 0.0091 0.0000
vt 0.9903 0.0109 0.0000
vt 0.5074 0.8240 0.0000
vt 0.6278 0.8233 0.0000
vt 0.6197 0.9855 0.0000
vt 0.7385 0.9824 0.0000
# 79 texture coords

g Paper_C
usemtl paper_debris_material
s 1
f 1/1/1 2/2/2 3/3/3 
s off
f 4/4/4 5/4/4 6/5/4 
f 7/6/5 8/7/5 9/8/5 
f 10/9/6 11/10/6 12/11/6 
f 13/12/7 14/13/7 15/12/7 
s 1
f 16/14/8 17/15/9 18/16/10 
f 14/17/11 13/18/12 19/19/13 
s off
f 20/20/14 21/21/14 22/22/14 
f 23/23/15 24/24/15 25/25/15 
s 1
f 15/26/16 26/27/17 27/28/18 
f 19/19/13 28/29/19 29/30/20 
f 29/30/20 30/31/21 1/1/1 
f 8/32/22 7/33/23 31/34/24 
f 27/28/18 32/35/25 33/36/26 
f 33/36/26 34/37/27 16/14/8 
f 9/38/28 35/39/29 36/40/30 
s off
f 37/41/31 38/42/31 39/41/31 
f 21/21/32 37/41/32 40/21/32 
f 22/22/14 6/5/14 20/20/14 
f 41/43/33 42/44/33 43/43/33 
f 24/24/34 41/43/34 44/24/34 
f 25/25/15 12/11/15 23/23/15 
s 1
f 2/2/2 40/45/35 31/34/24 
f 3/3/3 41/46/36 1/1/1 
s off
f 8/7/37 45/47/37 35/48/37 
f 9/8/38 46/49/38 7/6/38 
f 14/13/39 11/50/39 26/51/39 
f 15/12/40 5/52/40 13/12/40 
s 1
f 17/15/9 44/53/41 36/40/30 
f 18/16/10 37/54/42 16/14/8 
f 13/18/12 4/55/43 28/29/19 
f 19/19/13 47/56/44 14/17/11 
f 26/27/17 10/57/45 32/35/25 
f 27/28/18 48/58/46 15/26/16 
f 28/29/19 6/59/47 30/31/21 
f 29/30/20 23/60/48 19/19/13 
f 30/31/21 22/61/49 2/2/2 
f 1/1/1 24/62/50 29/30/20 
f 7/33/23 42/63/51 3/3/3 
f 31/34/24 39/64/52 8/32/22 
f 32/35/25 12/65/53 34/37/27 
f 33/36/26 20/66/54 27/28/18 
f 34/37/27 25/67/55 17/15/9 
f 16/14/8 21/68/56 33/36/26 
f 35/39/29 38/69/57 18/16/10 
f 36/40/30 43/70/58 9/38/28 
f 2/2/2 31/34/24 3/3/3 
s off
f 5/4/59 48/71/59 6/5/59 
f 8/7/60 35/48/60 9/8/60 
f 11/10/61 47/72/61 12/11/61 
f 14/13/62 26/51/62 15/12/62 
s 1
f 17/15/9 36/40/30 18/16/10 
f 13/18/12 28/29/19 19/19/13 
s off
f 21/21/63 40/21/63 22/22/63 
f 24/24/64 44/24/64 25/25/64 
s 1
f 26/27/17 32/35/25 27/28/18 
f 28/29/19 30/31/21 29/30/20 
f 30/31/21 2/2/2 1/1/1 
f 7/33/23 3/3/3 31/34/24 
f 32/35/25 34/37/27 33/36/26 
f 34/37/27 17/15/9 16/14/8 
f 35/39/29 18/16/10 36/40/30 
s off
f 38/42/65 45/42/65 39/41/65 
f 37/41/31 39/41/31 40/21/31 
f 6/5/66 48/71/66 20/20/66 
f 42/44/67 46/44/67 43/43/67 
f 41/43/33 43/43/33 44/24/33 
f 12/11/61 47/72/61 23/23/61 
s 1
f 40/45/35 39/64/52 31/34/24 
f 41/46/36 24/62/50 1/1/1 
s off
f 45/47/68 38/73/68 35/48/68 
f 46/49/69 42/74/69 7/6/69 
f 11/50/70 10/75/70 26/51/70 
f 5/52/71 4/52/71 13/12/71 
s 1
f 44/53/41 43/70/58 36/40/30 
f 37/54/42 21/68/56 16/14/8 
f 4/55/43 6/59/47 28/29/19 
f 47/56/44 11/76/72 14/17/11 
f 10/57/45 12/65/53 32/35/25 
f 48/58/46 5/77/73 15/26/16 
f 6/59/47 22/61/49 30/31/21 
f 23/60/48 47/56/44 19/19/13 
f 22/61/49 40/45/35 2/2/2 
f 24/62/50 23/60/48 29/30/20 
f 42/63/51 41/46/36 3/3/3 
f 39/64/52 45/78/74 8/32/22 
f 12/65/53 25/67/55 34/37/27 
f 20/66/54 48/58/46 27/28/18 
f 25/67/55 44/53/41 17/15/9 
f 21/68/56 20/66/54 33/36/26 
f 38/69/57 37/54/42 18/16/10 
f 43/70/58 46/79/75 9/38/28 
# 92 faces

