# 3ds Max Wavefront OBJ Exporter v0.97b - (c)2007 guruware
# File Created: 18.10.2016 17:57:24

mtllib Paper_J.mtl

#
# object Paper_J
#

v  7.0961 -0.6492 35.4293
v  10.1754 -1.9333 31.8583
v  7.3544 -2.1155 31.2083
v  7.7257 -3.0839 18.6978
v  7.7257 -3.0867 18.6976
v  7.6638 -3.2816 22.8105
v  19.4143 -0.5106 36.5196
v  19.4143 -0.5082 36.5184
v  15.6912 -0.5532 36.1905
v  20.0798 -3.0846 18.8323
v  20.0798 -3.0818 18.8326
v  19.8517 -2.7994 28.4750
v  11.3323 -3.0861 18.7369
v  7.0960 -0.6516 35.4305
v  10.1724 -1.9677 31.8736
v  9.6042 -0.6229 35.6523
v  9.6049 -0.6205 35.6511
v  7.3540 -2.1160 31.2169
v  15.4029 -3.1634 25.3401
v  15.0481 -3.0827 18.7777
v  15.6908 -0.5508 36.1892
v  12.6478 -0.5857 35.9202
v  15.0486 -3.0855 18.7774
v  15.4033 -3.1662 25.3399
v  15.4459 -3.0698 26.3692
v  19.6019 -1.5803 33.5975
v  15.6385 -1.7649 32.8087
v  11.3330 -3.0833 18.7372
v  13.1906 -3.0830 18.7575
v  12.6477 -0.5880 35.9214
v  13.1904 -3.0858 18.7572
v  10.8906 -3.2354 24.2616
v  10.8917 -3.2329 24.2562
v  7.6637 -3.2843 22.8162
v  19.8520 -2.7977 28.4688
v  15.6391 -1.7649 32.8178
v  15.4453 -3.0678 26.3627
v  14.8478 -3.0960 26.0821
v  12.8711 -3.1751 25.1627
v  14.8446 -3.0982 26.0867
v  12.6015 -2.6696 28.9989
v  12.8690 -3.1775 25.1677
v  12.9859 -1.8825 32.2980
v  12.6060 -2.6681 28.9926
v  12.9885 -1.8822 32.2896
v  19.6014 -1.5803 33.6065
# 46 vertices

vn 0.0165 0.9453 -0.3257
vn 0.0183 0.9655 -0.2598
vn 0.0023 0.9718 -0.2359
vn -0.9999 0.0001 -0.0150
vn -0.0835 0.4579 0.8851
vn 0.9997 -0.0023 0.0237
vn 0.0108 0.0860 -0.9962
vn -0.0217 -0.9436 0.3304
vn -0.0185 -0.9654 0.2600
vn -0.0186 -0.9428 0.3328
vn 0.0179 0.9457 -0.3246
vn -0.0123 -0.9723 0.2335
vn -0.0189 0.9990 -0.0413
vn -0.0234 0.9997 -0.0043
vn -0.0009 0.9999 0.0132
vn -0.0835 0.4574 0.8853
vn 0.0108 0.0936 -0.9956
vn 0.0189 -0.9990 0.0413
vn 0.0056 -0.9889 0.1485
vn -0.0154 -0.9891 0.1462
vn 0.0206 0.9404 -0.3394
vn 0.0121 0.9565 -0.2916
vn 0.0118 0.9610 -0.2764
vn 0.0009 -0.9999 -0.0131
vn 0.0235 -0.9997 0.0044
vn 0.0108 0.0903 -0.9959
vn -0.0205 -0.9420 0.3351
vn 0.0226 0.9429 -0.3323
vn 0.0059 -0.9995 -0.0322
vn 0.0042 -0.9998 -0.0189
vn -0.0050 -0.9979 0.0651
vn -0.0836 0.4549 0.8866
vn 0.0047 0.9978 -0.0661
vn -0.0059 0.9995 0.0323
vn 0.0066 0.9995 -0.0303
vn -0.9991 -0.0254 -0.0333
vn 0.9988 0.0208 0.0438
vn -0.0066 -0.9995 0.0304
vn -0.0118 -0.9609 0.2766
vn -0.0056 0.9889 -0.1483
vn 0.0154 0.9892 -0.1460
vn 0.0050 0.9917 -0.1288
vn 0.0160 0.9972 -0.0729
vn -0.0050 -0.9916 0.1289
vn -0.0434 -0.9852 0.1657
vn -0.0148 -0.9973 0.0720
vn -0.0131 -0.9590 0.2831
vn 0.0509 0.9849 -0.1653
vn 0.0189 0.9590 -0.2829
vn -0.9983 -0.0278 -0.0515
vn 0.9982 0.0233 0.0556
vn -0.0121 -0.9564 0.2917
vn -0.0206 -0.9404 0.3395
vn -0.0835 0.4563 0.8859
vn 0.0108 0.0914 -0.9958
vn -0.0042 0.9998 0.0190
vn -0.9998 0.0150 -0.0143
vn 0.9986 -0.0468 0.0250
vn -0.0836 0.4563 0.8859
vn 0.0108 0.0965 -0.9953
vn 0.0196 0.9390 -0.3434
vn -0.0836 0.4543 0.8869
vn -0.0007 0.9988 0.0480
vn -0.9965 0.0698 -0.0464
vn 0.9980 -0.0300 0.0558
vn 0.0007 -0.9989 -0.0479
vn -0.9983 -0.0088 -0.0580
vn 0.9981 0.0091 0.0608
vn -0.0196 -0.9389 0.3435
# 69 vertex normals

vt 0.6286 0.6001 0.0000
vt 0.6027 0.5618 0.0000
vt 0.6286 0.5572 0.0000
vt 0.6420 0.0102 0.0000
vt 0.7251 0.0105 0.0000
vt 0.6955 0.0092 0.0000
vt 0.6955 0.0091 0.0000
vt 0.7684 0.0102 0.0000
vt 0.6470 0.0114 0.0000
vt 0.6470 0.0113 0.0000
vt 0.8316 0.0115 0.0000
vt 0.7491 0.0103 0.0000
vt 0.8195 0.0105 0.0000
vt 0.6367 0.5970 0.0000
vt 0.6622 0.5593 0.0000
vt 0.6593 0.5970 0.0000
vt 0.6058 0.6001 0.0000
vt 0.6367 0.5549 0.0000
vt 0.5577 0.4981 0.0000
vt 0.5163 0.4386 0.0000
vt 0.5621 0.4386 0.0000
vt 0.7684 0.0101 0.0000
vt 0.8280 0.0109 0.0000
vt 0.8920 0.0106 0.0000
vt 0.9903 0.0108 0.0000
vt 0.8920 0.0107 0.0000
vt 0.7066 0.4965 0.0000
vt 0.7474 0.5226 0.0000
vt 0.7073 0.5057 0.0000
vt 0.5502 0.6001 0.0000
vt 0.5163 0.5718 0.0000
vt 0.5527 0.5671 0.0000
vt 0.7023 0.4379 0.0000
vt 0.7474 0.4379 0.0000
vt 0.8195 0.0104 0.0000
vt 0.8558 0.0105 0.0000
vt 0.6866 0.5970 0.0000
vt 0.5780 0.6001 0.0000
vt 0.6690 0.4379 0.0000
vt 0.6857 0.4379 0.0000
vt 0.6659 0.4884 0.0000
vt 0.8876 0.0118 0.0000
vt 0.9367 0.0124 0.0000
vt 0.5990 0.4898 0.0000
vt 0.5958 0.4386 0.0000
vt 0.6286 0.4773 0.0000
vt 0.7252 0.0104 0.0000
vt 0.8969 0.0110 0.0000
vt 0.8315 0.0114 0.0000
vt 0.9329 0.0115 0.0000
vt 0.6367 0.4761 0.0000
vt 0.7116 0.5645 0.0000
vt 0.5163 0.5245 0.0000
vt 0.5570 0.5074 0.0000
vt 0.5625 0.5051 0.0000
vt 0.5808 0.4974 0.0000
vt 0.7018 0.5034 0.0000
vt 0.6827 0.5309 0.0000
vt 0.6839 0.4959 0.0000
vt 0.6876 0.5614 0.0000
vt 0.5819 0.5329 0.0000
vt 0.5770 0.5639 0.0000
vt 0.9887 0.0113 0.0000
vt 0.8967 0.0110 0.0000
vt 0.9938 0.0115 0.0000
vt 0.9331 0.0115 0.0000
vt 0.7474 0.5692 0.0000
vt 0.7139 0.5970 0.0000
vt 0.8280 0.0110 0.0000
vt 0.8558 0.0106 0.0000
vt 0.5789 0.4386 0.0000
vt 0.9903 0.0109 0.0000
vt 0.5163 0.6001 0.0000
vt 0.9367 0.0125 0.0000
vt 0.6286 0.4386 0.0000
vt 0.6367 0.4379 0.0000
vt 0.7474 0.5970 0.0000
# 77 texture coords

g Paper_J
usemtl paper_debris_material
s 1
f 1/1/1 2/2/2 3/3/3 
s off
f 4/4/4 5/4/4 6/5/4 
f 7/6/5 8/7/5 9/8/5 
f 10/9/6 11/10/6 12/11/6 
f 5/12/7 4/12/7 13/13/7 
s 1
f 14/14/8 15/15/9 16/16/10 
f 1/1/1 17/17/11 2/2/2 
f 14/14/8 18/18/12 15/15/9 
f 19/19/13 11/20/14 20/21/15 
s off
f 21/22/16 22/23/16 9/8/16 
f 20/24/17 11/25/17 23/26/17 
s 1
f 24/27/18 12/28/19 25/29/20 
f 21/30/21 26/31/22 27/32/23 
f 23/33/24 10/34/25 24/27/18 
s off
f 28/35/26 29/36/26 13/13/26 
s 1
f 15/15/9 30/37/27 16/16/10 
f 17/17/11 22/38/28 2/2/2 
f 13/39/29 31/40/30 32/41/31 
s off
f 17/42/32 1/43/32 16/42/32 
s 1
f 33/44/33 28/45/34 6/46/35 
s off
f 34/47/36 18/48/36 6/5/36 
f 35/49/37 26/50/37 12/11/37 
s 1
f 34/51/38 13/39/29 32/41/31 
f 12/28/19 36/52/39 25/29/20 
f 35/53/40 19/19/13 37/54/41 
f 38/55/42 19/19/13 39/56/43 
f 40/57/44 24/27/18 25/29/20 
f 37/54/41 19/19/13 38/55/42 
f 40/57/44 41/58/45 42/59/46 
f 2/2/2 33/44/33 3/3/3 
f 18/18/12 32/41/31 15/15/9 
f 26/31/22 35/53/40 27/32/23 
f 2/2/2 39/56/43 33/44/33 
f 15/15/9 41/58/45 43/60/47 
f 27/32/23 44/61/48 45/62/49 
s off
f 18/48/50 14/63/50 3/64/50 
f 26/50/51 8/65/51 46/66/51 
s 1
f 46/67/52 9/68/53 36/52/39 
s off
f 22/23/54 17/42/54 30/69/54 
f 29/36/55 20/24/55 31/70/55 
s 1
f 43/60/47 36/52/39 30/37/27 
f 22/38/28 27/32/23 45/62/49 
f 31/40/30 23/33/24 42/59/46 
f 29/71/56 33/44/33 39/56/43 
f 41/58/45 15/15/9 42/59/46 
f 44/61/48 38/55/42 39/56/43 
f 41/58/45 36/52/39 43/60/47 
f 44/61/48 2/2/2 45/62/49 
s off
f 5/4/57 34/47/57 6/5/57 
f 8/7/16 21/22/16 9/8/16 
f 11/10/58 35/49/58 12/11/58 
f 4/12/26 28/35/26 13/13/26 
f 22/23/59 30/69/59 9/8/59 
f 11/25/60 10/72/60 23/26/60 
s 1
f 24/27/18 10/34/25 12/28/19 
f 21/30/21 8/73/61 26/31/22 
s off
f 29/36/55 31/70/55 13/13/55 
s 1
f 15/15/9 43/60/47 30/37/27 
f 22/38/28 45/62/49 2/2/2 
f 31/40/30 42/59/46 32/41/31 
s off
f 1/43/62 14/74/62 16/42/62 
s 1
f 28/45/34 4/75/63 6/46/35 
s off
f 18/48/64 3/64/64 6/5/64 
f 26/50/65 46/66/65 12/11/65 
s 1
f 34/51/38 5/76/66 13/39/29 
f 12/28/19 46/67/52 36/52/39 
f 35/53/40 11/20/14 19/19/13 
f 20/21/15 29/71/56 39/56/43 
f 19/19/13 20/21/15 39/56/43 
f 33/44/33 6/46/35 3/3/3 
f 18/18/12 34/51/38 32/41/31 
f 35/53/40 37/54/41 27/32/23 
f 2/2/2 44/61/48 39/56/43 
f 27/32/23 37/54/41 38/55/42 
f 27/32/23 38/55/42 44/61/48 
s off
f 14/63/67 1/63/67 3/64/67 
f 8/65/68 7/65/68 46/66/68 
s 1
f 46/67/52 7/77/69 9/68/53 
s off
f 17/42/32 16/42/32 30/69/32 
f 20/24/17 23/26/17 31/70/17 
s 1
f 36/52/39 9/68/53 30/37/27 
f 22/38/28 21/30/21 27/32/23 
f 24/27/18 40/57/44 42/59/46 
f 23/33/24 24/27/18 42/59/46 
f 29/71/56 28/45/34 33/44/33 
f 15/15/9 32/41/31 42/59/46 
f 40/57/44 25/29/20 36/52/39 
f 41/58/45 40/57/44 36/52/39 
# 88 faces

