# 3ds Max Wavefront OBJ Exporter v0.97b - (c)2007 guruware
# File Created: 18.10.2016 17:57:15

mtllib Paper_I.mtl

#
# object Paper_I
#

v  35.8687 -3.2450 32.4181
v  35.8687 -3.2451 22.8691
v  23.5140 -3.2450 32.4181
v  23.5140 -3.2476 22.8659
v  23.5140 -3.2474 32.4211
v  23.5140 -3.2451 22.8691
v  35.8687 -1.9866 35.4570
v  35.8687 -1.9870 35.4516
v  23.5140 -1.9870 35.4516
v  35.8687 -3.2476 22.8659
v  23.5140 -2.2462 19.6999
v  23.5140 -2.2451 19.7056
v  35.8687 -2.2451 19.7056
v  35.8687 -3.2474 32.4211
v  35.8687 -3.1123 22.0941
v  35.8687 -2.9402 21.1615
v  23.5140 -3.1123 22.0941
v  23.5140 -3.1122 33.1930
v  23.5140 -2.8637 34.0328
v  35.8687 -3.1122 33.1930
v  23.5140 -3.1146 33.1965
v  23.5140 -2.8652 34.0372
v  23.5140 -2.9402 21.1615
v  23.5140 -3.1148 22.0905
v  35.8687 -2.8637 34.0328
v  35.8687 -3.1146 33.1965
v  35.8687 -3.1148 22.0904
v  35.8687 -2.9418 21.1568
v  23.5140 -2.9418 21.1568
v  35.8687 -2.8652 34.0372
v  35.8687 -2.5542 20.3120
v  23.5140 -2.5542 20.3120
v  23.5140 -2.4425 34.9460
v  35.8687 -2.4425 34.9460
v  23.5140 -2.4424 34.9510
v  23.5140 -1.9866 35.4570
v  23.5140 -2.5555 20.3067
v  35.8687 -2.4424 34.9510
v  35.8687 -2.5555 20.3067
v  35.8687 -2.2462 19.6999
# 40 vertices

vn 0.0000 0.9964 -0.0848
vn 0.0000 0.9964 0.0847
vn -1.0000 0.0000 -0.0000
vn 0.0000 0.9971 -0.0756
vn 1.0000 -0.0000 -0.0000
vn 0.0000 0.9825 -0.1862
vn -0.0000 -0.9964 0.0848
vn -0.0000 -0.9964 -0.0847
vn 0.0000 0.9845 0.1752
vn 0.0000 0.9540 0.2998
vn 0.0000 0.9740 -0.2267
vn 0.0000 0.9359 -0.3522
vn -0.0000 -0.9845 -0.1755
vn -0.0000 -0.9539 -0.3002
vn -0.0000 -0.9739 0.2270
vn -0.0000 -0.9356 0.3531
vn 0.0000 0.9009 0.4340
vn 0.0000 0.8909 0.4541
vn -0.0000 0.8350 -0.5503
vn -0.0000 0.7430 -0.6693
vn -0.0000 -0.9009 -0.4340
vn -0.0000 -0.8910 -0.4541
vn 0.0000 -0.8347 0.5508
vn 0.0000 -0.7430 0.6693
vn 0.0000 0.9971 -0.0758
vn -0.0000 0.9827 -0.1852
# 26 vertex normals

vt 0.2704 0.5682 0.0000
vt 0.2704 0.4787 0.0000
vt 0.3827 0.5682 0.0000
vt 0.7194 0.0104 0.0000
vt 0.9114 0.0110 0.0000
vt 0.7194 0.0105 0.0000
vt 0.6955 0.0092 0.0000
vt 0.6955 0.0091 0.0000
vt 0.9367 0.0124 0.0000
vt 0.7244 0.0114 0.0000
vt 0.9164 0.0114 0.0000
vt 0.7491 0.0103 0.0000
vt 0.9903 0.0108 0.0000
vt 0.3908 0.5656 0.0000
vt 0.3908 0.4775 0.0000
vt 0.5015 0.5656 0.0000
vt 0.2704 0.4709 0.0000
vt 0.2704 0.4607 0.0000
vt 0.3828 0.4709 0.0000
vt 0.3827 0.5760 0.0000
vt 0.3827 0.5862 0.0000
vt 0.2704 0.5760 0.0000
vt 0.9282 0.0111 0.0000
vt 0.9501 0.0111 0.0000
vt 0.7025 0.0104 0.0000
vt 0.6807 0.0104 0.0000
vt 0.9332 0.0115 0.0000
vt 0.9551 0.0115 0.0000
vt 0.7076 0.0114 0.0000
vt 0.6857 0.0114 0.0000
vt 0.3908 0.4698 0.0000
vt 0.3908 0.4598 0.0000
vt 0.5015 0.4698 0.0000
vt 0.5015 0.5734 0.0000
vt 0.5015 0.5834 0.0000
vt 0.3908 0.5733 0.0000
vt 0.2704 0.4505 0.0000
vt 0.2704 0.4427 0.0000
vt 0.3828 0.4505 0.0000
vt 0.3828 0.4607 0.0000
vt 0.3828 0.4787 0.0000
vt 0.3827 0.5964 0.0000
vt 0.3827 0.6042 0.0000
vt 0.2704 0.5964 0.0000
vt 0.2704 0.5862 0.0000
vt 0.9719 0.0112 0.0000
vt 0.9887 0.0113 0.0000
vt 0.9719 0.0113 0.0000
vt 0.9501 0.0112 0.0000
vt 0.9114 0.0111 0.0000
vt 0.6588 0.0103 0.0000
vt 0.6420 0.0102 0.0000
vt 0.6588 0.0102 0.0000
vt 0.6807 0.0103 0.0000
vt 0.9769 0.0115 0.0000
vt 0.9938 0.0115 0.0000
vt 0.9164 0.0115 0.0000
vt 0.6638 0.0114 0.0000
vt 0.6470 0.0114 0.0000
vt 0.6638 0.0113 0.0000
vt 0.6857 0.0113 0.0000
vt 0.3908 0.4498 0.0000
vt 0.3908 0.4420 0.0000
vt 0.5015 0.4498 0.0000
vt 0.5015 0.4598 0.0000
vt 0.5015 0.4775 0.0000
vt 0.5015 0.5934 0.0000
vt 0.5015 0.6011 0.0000
vt 0.3908 0.5934 0.0000
vt 0.3908 0.5834 0.0000
vt 0.9367 0.0125 0.0000
vt 0.9903 0.0109 0.0000
vt 0.3828 0.4427 0.0000
vt 0.2704 0.6042 0.0000
vt 0.6470 0.0113 0.0000
vt 0.5015 0.4420 0.0000
vt 0.3908 0.6011 0.0000
# 77 texture coords

g Paper_I
usemtl paper_debris_material
s 1
f 1/1/1 2/2/2 3/3/1 
s off
f 4/4/3 5/5/3 6/6/3 
f 7/7/4 8/8/4 9/9/4 
f 2/10/5 1/11/5 10/10/5 
f 11/12/6 12/12/6 13/13/6 
s 1
f 5/14/7 4/15/8 14/16/7 
f 15/17/9 16/18/10 17/19/9 
f 18/20/11 19/21/12 20/22/11 
s off
f 21/23/3 22/24/3 18/23/3 
f 17/25/3 23/26/3 24/25/3 
f 20/27/5 25/28/5 26/27/5 
f 27/29/5 28/30/5 15/29/5 
s 1
f 24/31/13 29/32/14 27/33/13 
f 26/34/15 30/35/16 21/36/15 
f 31/37/17 13/38/18 32/39/17 
f 16/18/10 31/37/17 23/40/10 
f 17/19/9 6/41/2 15/17/9 
f 33/42/19 9/43/20 34/44/19 
f 19/21/12 33/42/19 25/45/12 
f 20/22/11 1/1/1 18/20/11 
s off
f 35/46/3 36/47/3 33/48/3 
f 22/24/3 35/46/3 19/49/3 
f 18/23/3 3/50/3 21/23/3 
f 32/51/3 12/52/3 37/53/3 
f 23/26/3 32/51/3 29/54/3 
f 24/25/3 4/4/3 17/25/3 
f 34/55/5 8/56/5 38/55/5 
f 25/28/5 34/55/5 30/28/5 
f 26/27/5 14/57/5 20/27/5 
f 39/58/5 40/59/5 31/60/5 
f 28/30/5 39/58/5 16/61/5 
f 15/29/5 2/10/5 27/29/5 
s 1
f 37/62/21 11/63/22 39/64/21 
f 29/32/14 37/62/21 28/65/14 
f 27/33/13 10/66/8 24/31/13 
f 38/67/23 7/68/24 35/69/23 
f 30/35/16 38/67/23 22/70/16 
f 21/36/15 5/14/7 26/34/15 
f 2/2/2 6/41/2 3/3/1 
s off
f 5/5/3 3/50/3 6/6/3 
f 9/9/25 36/71/25 7/7/25 
f 1/11/5 14/57/5 10/10/5 
f 13/13/26 40/72/26 11/12/26 
s 1
f 4/15/8 10/66/8 14/16/7 
f 16/18/10 23/40/10 17/19/9 
f 19/21/12 25/45/12 20/22/11 
s off
f 22/24/3 19/49/3 18/23/3 
f 23/26/3 29/54/3 24/25/3 
f 25/28/5 30/28/5 26/27/5 
f 28/30/5 16/61/5 15/29/5 
s 1
f 29/32/14 28/65/14 27/33/13 
f 30/35/16 22/70/16 21/36/15 
f 13/38/18 12/73/18 32/39/17 
f 31/37/17 32/39/17 23/40/10 
f 6/41/2 2/2/2 15/17/9 
f 9/43/20 8/74/20 34/44/19 
f 33/42/19 34/44/19 25/45/12 
f 1/1/1 3/3/1 18/20/11 
s off
f 36/47/3 9/47/3 33/48/3 
f 35/46/3 33/48/3 19/49/3 
f 3/50/3 5/5/3 21/23/3 
f 12/52/3 11/52/3 37/53/3 
f 32/51/3 37/53/3 29/54/3 
f 4/4/3 6/6/3 17/25/3 
f 8/56/5 7/56/5 38/55/5 
f 34/55/5 38/55/5 30/28/5 
f 14/57/5 1/11/5 20/27/5 
f 40/59/5 13/75/5 31/60/5 
f 39/58/5 31/60/5 16/61/5 
f 2/10/5 10/10/5 27/29/5 
s 1
f 11/63/22 40/76/22 39/64/21 
f 37/62/21 39/64/21 28/65/14 
f 10/66/8 4/15/8 24/31/13 
f 7/68/24 36/77/24 35/69/23 
f 38/67/23 35/69/23 22/70/16 
f 5/14/7 14/16/7 26/34/15 
# 76 faces

