# 3ds Max Wavefront OBJ Exporter v0.97b - (c)2007 guruware
# File Created: 18.10.2016 17:55:58

mtllib Paper_A.mtl

#
# object Paper_A
#

v  63.4428 -3.0545 49.8011
v  60.3456 -3.2260 49.7961
v  63.4289 -2.8703 52.7530
v  54.1455 -2.3578 46.8635
v  54.1553 -2.5431 49.8159
v  54.1456 -2.3552 46.8639
v  63.3752 -1.4122 58.4731
v  60.3454 -1.5794 58.4684
v  63.3753 -1.4146 58.4740
v  66.5456 -2.3556 46.8638
v  66.5358 -2.5404 49.8159
v  66.5457 -2.3583 46.8635
v  57.2612 -1.4099 41.1287
v  60.3458 -1.5796 41.1238
v  57.2611 -1.4125 41.1277
v  57.2484 -3.0572 49.8011
v  60.3456 -3.2287 49.7961
v  57.2623 -2.8732 52.7534
v  63.4305 -1.4106 41.1286
v  63.4436 -2.3189 43.9431
v  60.3457 -2.4895 43.9382
v  63.4477 -2.8697 46.8490
v  60.3456 -3.0411 46.8441
v  57.3156 -1.4130 58.4732
v  57.2849 -2.3205 55.6589
v  60.3456 -2.4894 55.6540
v  57.2623 -2.8706 52.7531
v  54.2282 -1.8165 55.6742
v  54.2898 -0.9158 58.4886
v  54.2283 -1.8139 55.6735
v  54.1831 -2.3618 52.7681
v  54.1832 -2.3591 52.7678
v  54.1554 -2.5405 49.8159
v  54.1541 -1.8061 43.9579
v  54.1807 -0.9019 41.1434
v  54.1539 -1.8088 43.9572
v  66.4627 -1.8129 55.6734
v  66.4009 -0.9119 58.4874
v  66.4628 -1.8154 55.6741
v  66.5080 -2.3586 52.7678
v  66.5081 -2.3612 52.7681
v  66.5359 -2.5431 49.8159
v  66.5374 -1.8097 43.9571
v  66.5111 -0.9059 41.1421
v  66.5373 -1.8071 43.9578
v  60.3458 -1.5822 41.1228
v  57.2477 -2.3211 43.9425
v  60.3457 -2.4922 43.9375
v  57.2435 -2.8722 46.8487
v  60.3456 -3.0439 46.8438
v  60.3454 -1.5818 58.4693
v  63.4063 -2.3226 55.6595
v  60.3456 -2.4919 55.6547
v  63.4289 -2.8729 52.7534
v  57.2484 -3.0545 49.8011
v  60.3456 -3.0411 52.7481
v  54.2899 -0.9134 58.4877
v  57.3156 -1.4154 58.4742
v  66.4010 -0.9143 58.4883
v  66.5110 -0.9033 41.1431
v  63.4305 -1.4132 41.1276
v  54.1805 -0.9045 41.1424
v  63.4429 -3.0572 49.8011
v  60.3456 -3.0437 52.7485
v  57.2478 -2.3184 43.9431
v  57.2435 -2.8695 46.8490
v  63.4062 -2.3200 55.6589
v  63.4436 -2.3216 43.9424
v  63.4478 -2.8724 46.8487
v  57.2848 -2.3231 55.6596
# 70 vertices

vn -0.1096 0.9940 -0.0002
vn -0.0000 1.0000 0.0000
vn -0.1083 0.9864 -0.1240
vn -0.9988 0.0481 0.0063
vn -0.0218 0.3682 0.9295
vn 0.9988 0.0481 0.0063
vn 0.0187 0.3663 -0.9303
vn -0.1096 -0.9940 0.0001
vn -0.0000 -1.0000 -0.0000
vn -0.1083 -0.9864 0.1239
vn -0.1056 0.9463 0.3057
vn 0.0000 0.9515 0.3076
vn -0.1066 0.9635 0.2456
vn 0.0000 0.9690 0.2470
vn -0.1090 0.9863 0.1236
vn 0.0000 0.9922 0.1245
vn 0.1039 0.9463 -0.3061
vn -0.0001 0.9515 -0.3076
vn 0.1052 0.9636 -0.2459
vn -0.0001 0.9690 -0.2469
vn 0.1083 0.9864 -0.1239
vn -0.9987 0.0510 0.0055
vn -0.9988 0.0485 0.0064
vn -0.9988 0.0492 0.0064
vn -0.9987 0.0503 0.0067
vn -0.9988 0.0482 0.0062
vn 0.9988 0.0485 0.0064
vn 0.9989 0.0460 0.0069
vn 0.9988 0.0492 0.0064
vn 0.9986 0.0525 0.0075
vn 0.9988 0.0482 0.0062
vn -0.1058 -0.9462 -0.3058
vn -0.0002 -0.9515 -0.3076
vn -0.1067 -0.9635 -0.2457
vn -0.0001 -0.9690 -0.2470
vn -0.1091 -0.9863 -0.1237
vn -0.0000 -0.9922 -0.1245
vn 0.1041 -0.9462 0.3063
vn 0.0001 -0.9515 0.3076
vn 0.1054 -0.9635 0.2460
vn 0.0001 -0.9690 0.2470
vn 0.1084 -0.9863 0.1240
vn 0.1096 0.9940 -0.0001
vn 0.1639 0.9865 -0.0003
vn -0.0000 0.9922 -0.1244
vn -0.1621 0.9789 -0.1241
vn 0.0652 0.3680 0.9276
vn 0.0218 0.3697 0.9289
vn -0.0650 0.3666 0.9281
vn -0.0559 0.3660 -0.9289
vn -0.0186 0.3666 -0.9302
vn 0.0557 0.3649 -0.9294
vn 0.1096 -0.9940 0.0002
vn 0.1640 -0.9865 0.0005
vn 0.0001 -0.9922 0.1244
vn -0.1620 -0.9790 0.1240
vn 0.1056 0.9462 0.3060
vn 0.1568 0.9398 0.3037
vn 0.1066 0.9635 0.2456
vn -0.1592 0.9563 0.2452
vn 0.1596 0.9562 0.2452
vn 0.1090 0.9863 0.1237
vn -0.1629 0.9789 0.1233
vn 0.1632 0.9789 0.1234
vn -0.1639 0.9865 -0.0004
vn -0.1040 0.9462 -0.3064
vn -0.1543 0.9399 -0.3046
vn -0.1053 0.9635 -0.2459
vn 0.1572 0.9565 -0.2459
vn -0.1576 0.9564 -0.2460
vn 0.1619 0.9790 -0.1240
vn 0.1054 -0.9462 -0.3059
vn 0.1566 -0.9398 -0.3036
vn 0.1064 -0.9635 -0.2455
vn -0.1594 -0.9563 -0.2453
vn 0.1595 -0.9563 -0.2451
vn 0.1089 -0.9863 -0.1236
vn -0.1630 -0.9789 -0.1234
vn 0.1631 -0.9789 -0.1232
vn -0.1639 -0.9865 0.0003
vn -0.1037 -0.9463 0.3063
vn -0.1541 -0.9400 0.3045
vn -0.1051 -0.9636 0.2459
vn 0.1574 -0.9564 0.2461
vn -0.1574 -0.9564 0.2459
vn 0.1620 -0.9789 0.1242
vn -0.0218 0.3696 0.9289
vn 0.0187 0.3665 -0.9303
vn -0.9990 0.0443 0.0077
vn -0.9987 0.0511 0.0059
vn -0.9986 0.0530 0.0076
vn -0.9987 0.0503 0.0066
vn 0.9989 0.0467 0.0070
vn 0.9989 0.0460 0.0066
vn 0.9986 0.0530 0.0077
vn 0.9986 0.0526 0.0071
vn 0.0655 0.3697 0.9268
vn 0.0218 0.3695 0.9290
vn -0.0652 0.3677 0.9276
vn -0.0561 0.3670 -0.9285
vn -0.0187 0.3674 -0.9299
vn 0.0556 0.3640 -0.9297
vn -0.1562 0.9400 0.3033
vn 0.1538 0.9401 -0.3042
vn -0.1564 -0.9399 -0.3034
vn 0.1540 -0.9400 0.3044
# 106 vertex normals

vt 0.0415 0.9047 0.0000
vt 0.0696 0.9047 0.0000
vt 0.0415 0.9316 0.0000
vt 0.7576 0.0105 0.0000
vt 0.8154 0.0107 0.0000
vt 0.7576 0.0106 0.0000
vt 0.7558 0.0100 0.0000
vt 0.8161 0.0108 0.0000
vt 0.7626 0.0114 0.0000
vt 0.8204 0.0114 0.0000
vt 0.8094 0.0104 0.0000
vt 0.8697 0.0105 0.0000
vt 0.8094 0.0105 0.0000
vt 0.1616 0.9028 0.0000
vt 0.1892 0.9028 0.0000
vt 0.1616 0.9293 0.0000
vt 0.0415 0.8240 0.0000
vt 0.0696 0.8240 0.0000
vt 0.0415 0.8509 0.0000
vt 0.0696 0.8509 0.0000
vt 0.0415 0.8778 0.0000
vt 0.0696 0.8778 0.0000
vt 0.0977 0.9855 0.0000
vt 0.0696 0.9854 0.0000
vt 0.0977 0.9585 0.0000
vt 0.0696 0.9585 0.0000
vt 0.0977 0.9316 0.0000
vt 0.9310 0.0111 0.0000
vt 0.9887 0.0113 0.0000
vt 0.9309 0.0111 0.0000
vt 0.8732 0.0109 0.0000
vt 0.8732 0.0110 0.0000
vt 0.8154 0.0108 0.0000
vt 0.6998 0.0104 0.0000
vt 0.6420 0.0102 0.0000
vt 0.9360 0.0115 0.0000
vt 0.9938 0.0115 0.0000
vt 0.8782 0.0114 0.0000
vt 0.8782 0.0115 0.0000
vt 0.8204 0.0115 0.0000
vt 0.7048 0.0114 0.0000
vt 0.6470 0.0114 0.0000
vt 0.1616 0.8233 0.0000
vt 0.1892 0.8233 0.0000
vt 0.1616 0.8498 0.0000
vt 0.1892 0.8498 0.0000
vt 0.1616 0.8763 0.0000
vt 0.1892 0.8763 0.0000
vt 0.2169 0.9824 0.0000
vt 0.1892 0.9824 0.0000
vt 0.2169 0.9559 0.0000
vt 0.1892 0.9559 0.0000
vt 0.2169 0.9293 0.0000
vt 0.0977 0.9047 0.0000
vt 0.1258 0.9047 0.0000
vt 0.0696 0.9316 0.0000
vt 0.0135 0.9316 0.0000
vt 0.8764 0.0116 0.0000
vt 0.9367 0.0124 0.0000
vt 0.8764 0.0117 0.0000
vt 0.6955 0.0092 0.0000
vt 0.9300 0.0107 0.0000
vt 0.9903 0.0108 0.0000
vt 0.8697 0.0106 0.0000
vt 0.7491 0.0103 0.0000
vt 0.2169 0.9028 0.0000
vt 0.2446 0.9028 0.0000
vt 0.1892 0.9293 0.0000
vt 0.1339 0.9293 0.0000
vt 0.0977 0.8240 0.0000
vt 0.1258 0.8240 0.0000
vt 0.0977 0.8509 0.0000
vt 0.0135 0.8509 0.0000
vt 0.1258 0.8509 0.0000
vt 0.0977 0.8778 0.0000
vt 0.0135 0.8778 0.0000
vt 0.1258 0.8778 0.0000
vt 0.0135 0.9047 0.0000
vt 0.0415 0.9854 0.0000
vt 0.0135 0.9854 0.0000
vt 0.0415 0.9585 0.0000
vt 0.1258 0.9585 0.0000
vt 0.0135 0.9585 0.0000
vt 0.1258 0.9316 0.0000
vt 0.2169 0.8233 0.0000
vt 0.2446 0.8233 0.0000
vt 0.2169 0.8498 0.0000
vt 0.1339 0.8498 0.0000
vt 0.2446 0.8498 0.0000
vt 0.2169 0.8763 0.0000
vt 0.1339 0.8763 0.0000
vt 0.2446 0.8763 0.0000
vt 0.1339 0.9028 0.0000
vt 0.1616 0.9824 0.0000
vt 0.1339 0.9824 0.0000
vt 0.1616 0.9559 0.0000
vt 0.2446 0.9559 0.0000
vt 0.1339 0.9559 0.0000
vt 0.2446 0.9293 0.0000
vt 0.6470 0.0113 0.0000
vt 0.9367 0.0125 0.0000
vt 0.6955 0.0091 0.0000
vt 0.9903 0.0109 0.0000
vt 0.0135 0.8240 0.0000
vt 0.1258 0.9855 0.0000
vt 0.1339 0.8233 0.0000
vt 0.2446 0.9824 0.0000
# 107 texture coords

g Paper_A
usemtl paper_debris_material
s 1
f 1/1/1 2/2/2 3/3/3 
s off
f 4/4/4 5/5/4 6/6/4 
f 7/7/5 8/8/5 9/7/5 
f 10/9/6 11/10/6 12/9/6 
f 13/11/7 14/12/7 15/13/7 
s 1
f 16/14/8 17/15/9 18/16/10 
f 19/17/11 14/18/12 20/19/13 
f 20/19/13 21/20/14 22/21/15 
f 22/21/15 23/22/16 1/1/1 
f 24/23/17 8/24/18 25/25/19 
f 25/25/19 26/26/20 27/27/21 
s off
f 28/28/22 29/29/22 30/30/22 
f 31/31/23 28/28/23 32/32/23 
f 5/5/24 31/31/24 33/33/24 
f 34/34/25 35/35/25 36/34/25 
f 6/6/26 34/34/26 4/4/26 
f 37/36/27 38/37/27 39/36/27 
f 40/38/28 37/36/28 41/39/28 
f 11/10/29 40/38/29 42/40/29 
f 43/41/30 44/42/30 45/41/30 
f 12/9/31 43/41/31 10/9/31 
s 1
f 15/43/32 46/44/33 47/45/34 
f 47/45/34 48/46/35 49/47/36 
f 49/47/36 50/48/37 16/14/8 
f 9/49/38 51/50/39 52/51/40 
f 52/51/40 53/52/41 54/53/42 
f 55/54/43 33/55/44 27/27/21 
f 2/2/2 55/54/43 56/56/45 
f 3/3/3 40/57/46 1/1/1 
s off
f 24/58/47 57/59/47 58/60/47 
f 8/8/48 24/58/48 51/8/48 
f 9/7/49 59/61/49 7/7/49 
f 19/62/50 60/63/50 61/62/50 
f 14/12/51 19/62/51 46/64/51 
f 15/13/52 62/65/52 13/11/52 
s 1
f 63/66/53 42/67/54 54/53/42 
f 17/15/9 63/66/53 64/68/55 
f 18/16/10 31/69/56 16/14/8 
f 13/70/57 35/71/58 65/72/59 
f 14/18/12 13/70/57 21/20/14 
f 20/19/13 45/73/60 19/17/11 
f 65/72/59 34/74/61 66/75/62 
f 21/20/14 65/72/59 23/22/16 
f 22/21/15 10/76/63 20/19/13 
f 66/75/62 6/77/64 55/54/43 
f 23/22/16 66/75/62 2/2/2 
f 1/1/1 11/78/65 22/21/15 
f 7/79/66 38/80/67 67/81/68 
f 8/24/18 7/79/66 26/26/20 
f 25/25/19 30/82/69 24/23/17 
f 67/81/68 37/83/70 3/3/3 
f 26/26/20 3/3/3 56/56/45 
f 27/27/21 32/84/71 25/25/19 
f 61/85/72 44/86/73 68/87/74 
f 46/44/33 61/85/72 48/46/35 
f 47/45/34 36/88/75 15/43/32 
f 68/87/74 43/89/76 69/90/77 
f 48/46/35 69/90/77 50/48/37 
f 49/47/36 4/91/78 47/45/34 
f 69/90/77 12/92/79 63/66/53 
f 50/48/37 69/90/77 17/15/9 
f 16/14/8 5/93/80 49/47/36 
f 58/94/81 29/95/82 70/96/83 
f 51/50/39 70/96/83 53/52/41 
f 52/51/40 39/97/84 9/49/38 
f 70/96/83 28/98/85 18/16/10 
f 53/52/41 70/96/83 64/68/55 
f 54/53/42 41/99/86 52/51/40 
f 2/2/2 56/56/45 3/3/3 
s off
f 5/5/24 33/33/24 6/6/24 
f 8/8/87 51/8/87 9/7/87 
f 11/10/29 42/40/29 12/9/29 
f 14/12/88 46/64/88 15/13/88 
s 1
f 17/15/9 64/68/55 18/16/10 
f 14/18/12 21/20/14 20/19/13 
f 21/20/14 23/22/16 22/21/15 
f 23/22/16 2/2/2 1/1/1 
f 8/24/18 26/26/20 25/25/19 
f 26/26/20 56/56/45 27/27/21 
s off
f 29/29/89 57/29/89 30/30/89 
f 28/28/90 30/30/90 32/32/90 
f 31/31/23 32/32/23 33/33/23 
f 35/35/91 62/35/91 36/34/91 
f 34/34/92 36/34/92 4/4/92 
f 38/37/93 59/37/93 39/36/93 
f 37/36/27 39/36/27 41/39/27 
f 40/38/94 41/39/94 42/40/94 
f 44/42/95 60/100/95 45/41/95 
f 43/41/96 45/41/96 10/9/96 
s 1
f 46/44/33 48/46/35 47/45/34 
f 48/46/35 50/48/37 49/47/36 
f 50/48/37 17/15/9 16/14/8 
f 51/50/39 53/52/41 52/51/40 
f 53/52/41 64/68/55 54/53/42 
f 33/55/44 32/84/71 27/27/21 
f 55/54/43 27/27/21 56/56/45 
f 40/57/46 11/78/65 1/1/1 
s off
f 57/59/97 29/101/97 58/60/97 
f 24/58/98 58/60/98 51/8/98 
f 59/61/99 38/102/99 7/7/99 
f 60/63/100 44/103/100 61/62/100 
f 19/62/101 61/62/101 46/64/101 
f 62/65/102 35/65/102 13/11/102 
s 1
f 42/67/54 41/99/86 54/53/42 
f 63/66/53 54/53/42 64/68/55 
f 31/69/56 5/93/80 16/14/8 
f 35/71/58 34/74/61 65/72/59 
f 13/70/57 65/72/59 21/20/14 
f 45/73/60 60/104/103 19/17/11 
f 34/74/61 6/77/64 66/75/62 
f 65/72/59 66/75/62 23/22/16 
f 10/76/63 45/73/60 20/19/13 
f 6/77/64 33/55/44 55/54/43 
f 66/75/62 55/54/43 2/2/2 
f 11/78/65 10/76/63 22/21/15 
f 38/80/67 37/83/70 67/81/68 
f 7/79/66 67/81/68 26/26/20 
f 30/82/69 57/105/104 24/23/17 
f 37/83/70 40/57/46 3/3/3 
f 26/26/20 67/81/68 3/3/3 
f 32/84/71 30/82/69 25/25/19 
f 44/86/73 43/89/76 68/87/74 
f 61/85/72 68/87/74 48/46/35 
f 36/88/75 62/106/105 15/43/32 
f 43/89/76 12/92/79 69/90/77 
f 48/46/35 68/87/74 69/90/77 
f 4/91/78 36/88/75 47/45/34 
f 12/92/79 42/67/54 63/66/53 
f 69/90/77 63/66/53 17/15/9 
f 5/93/80 4/91/78 49/47/36 
f 29/95/82 28/98/85 70/96/83 
f 51/50/39 58/94/81 70/96/83 
f 39/97/84 59/107/106 9/49/38 
f 28/98/85 31/69/56 18/16/10 
f 70/96/83 18/16/10 64/68/55 
f 41/99/86 39/97/84 52/51/40 
# 136 faces

